<svg width="642" height="489" viewBox="0 0 642 489" fill="none" xmlns="http://www.w3.org/2000/svg">
<g clip-path="url(#clip0_2_204)">
<path d="M165.05 92.1288C163.414 90.3095 161.906 88.3793 160.536 86.3519L189.205 79.643L157.87 81.9792C154.424 75.6322 152.308 68.6483 151.652 61.4547C150.996 54.2612 151.813 47.0093 154.054 40.1428L197.578 59.1579L156.876 33.2238C160.09 26.6952 164.612 20.8986 170.161 16.1953C175.71 11.492 182.168 7.98265 189.131 5.88587C196.095 3.7891 203.415 3.14983 210.637 4.00788C217.858 4.86594 224.825 7.20293 231.105 10.8733C237.384 14.5436 242.841 19.4687 247.135 25.3417C251.43 31.2147 254.47 37.9098 256.066 45.0099C257.663 52.1101 257.781 59.4631 256.414 66.611C255.047 73.7588 252.224 80.5484 248.12 86.5568C250.67 89.388 252.907 92.486 254.793 95.7971L218.475 117.885L257.695 101.718C261.07 109.863 262.363 118.723 261.456 127.494C260.549 136.265 257.47 144.672 252.5 151.953C258.595 158.723 262.843 166.951 264.835 175.844C266.826 184.736 266.494 193.992 263.869 202.718C261.244 211.444 256.416 219.346 249.85 225.66C243.285 231.974 235.204 236.488 226.387 238.766C227.217 240.691 227.71 242.745 227.843 244.838C228.081 247.932 227.49 251.034 226.132 253.825C227.822 256.422 228.819 259.41 229.026 262.503C229.233 265.596 228.644 268.69 227.315 271.49C229.005 274.087 230.002 277.075 230.209 280.168C230.416 283.261 229.827 286.355 228.498 289.155C230.189 291.752 231.185 294.74 231.392 297.833C231.599 300.926 231.01 304.02 229.681 306.82C231.399 309.404 232.398 312.4 232.575 315.498C233.11 323.481 228.604 330.283 222.511 330.692C216.418 331.1 211.046 324.961 210.511 316.978C210.273 313.884 210.864 310.781 212.222 307.991C210.532 305.394 209.535 302.406 209.328 299.313C209.121 296.22 209.71 293.126 211.039 290.326C209.349 287.729 208.352 284.741 208.145 281.648C207.938 278.555 208.527 275.461 209.856 272.661C208.165 270.064 207.169 267.076 206.962 263.983C206.755 260.89 207.344 257.796 208.673 254.996C206.955 252.412 205.956 249.416 205.779 246.318C205.629 244.196 205.851 242.064 206.436 240.019C197.442 238.866 188.894 235.423 181.611 230.018C174.327 224.612 168.552 217.426 164.839 209.148C161.125 200.869 159.597 191.775 160.401 182.736C161.205 173.698 164.313 165.017 169.43 157.525C161.479 148.694 156.725 137.445 155.931 125.585C155.137 113.725 158.348 101.942 165.05 92.1288V92.1288Z" fill="#F2F2F2"/>
<path d="M107.193 325.861C107.193 333.677 162.259 360.454 227.86 360.454C293.461 360.454 344.756 333.677 344.756 325.861C344.756 318.045 293.461 332.151 227.86 332.151C162.259 332.151 107.193 318.045 107.193 325.861Z" fill="#3F3D56"/>
<path opacity="0.1" d="M107.193 325.861C107.193 333.677 162.259 360.454 227.86 360.454C293.461 360.454 344.756 333.677 344.756 325.861C344.756 318.045 293.461 332.151 227.86 332.151C162.259 332.151 107.193 318.045 107.193 325.861Z" fill="black"/>
<path d="M225.975 340.013C160.374 340.013 107.193 333.677 107.193 325.861C107.193 318.045 160.374 311.709 225.975 311.709C291.576 311.709 344.756 318.045 344.756 325.861C344.756 333.677 291.576 340.013 225.975 340.013Z" fill="#3F3D56"/>
<path opacity="0.1" d="M223.165 339.211C200.917 339.211 182.88 334.054 182.88 327.692C182.88 321.331 200.917 316.174 223.165 316.174C245.414 316.174 263.45 321.331 263.45 327.692C263.45 334.054 245.414 339.211 223.165 339.211Z" fill="black"/>
<path d="M214.327 251.197C212.785 248.504 211.988 245.448 212.019 242.345C212.019 234.344 216.969 227.859 223.076 227.859C229.182 227.859 234.133 234.344 234.133 242.345C234.163 245.448 233.367 248.504 231.825 251.197C233.338 253.902 234.133 256.95 234.133 260.049C234.133 263.149 233.338 266.197 231.825 268.902C233.338 271.607 234.133 274.654 234.133 277.754C234.133 280.854 233.338 283.902 231.825 286.607C233.338 289.311 234.133 292.359 234.133 295.459C234.133 298.559 233.338 301.607 231.825 304.311C233.367 307.005 234.163 310.06 234.133 313.164C234.133 321.164 229.182 327.65 223.076 327.65C216.969 327.65 212.019 321.164 212.019 313.164C211.988 310.06 212.785 307.005 214.327 304.311C212.814 301.607 212.019 298.559 212.019 295.459C212.019 292.359 212.814 289.311 214.327 286.607C212.814 283.902 212.019 280.854 212.019 277.754C212.019 274.654 212.814 271.607 214.327 268.902C212.814 266.197 212.019 263.149 212.019 260.049C212.019 256.95 212.814 253.902 214.327 251.197Z" fill="#3F3D56"/>
<path d="M223.076 239.126C216.969 239.126 212.019 232.64 212.019 224.64C212.019 216.64 216.969 210.154 223.076 210.154C229.182 210.154 234.133 216.64 234.133 224.64C234.133 232.64 229.182 239.126 223.076 239.126Z" fill="#3F3D56"/>
<path d="M223.076 221.421C216.969 221.421 212.019 214.935 212.019 206.935C212.019 198.935 216.969 192.449 223.076 192.449C229.182 192.449 234.133 198.935 234.133 206.935C234.133 214.935 229.182 221.421 223.076 221.421Z" fill="#3F3D56"/>
<path d="M181.685 85.7753C180.174 83.8506 178.798 81.8237 177.567 79.7092L206.62 74.934L175.198 75.1678C172.184 68.6044 170.54 61.4945 170.366 54.2732C170.192 47.0518 171.492 39.8709 174.187 33.1697L216.342 55.0551L177.465 26.4551C181.107 20.1562 186.007 14.6753 191.858 10.3539C197.709 6.03255 204.387 2.96325 211.475 1.33724C218.563 -0.288782 225.909 -0.436688 233.057 0.902734C240.205 2.24216 247 5.04021 253.02 9.12259C259.041 13.205 264.156 18.4842 268.049 24.6315C271.941 30.7787 274.527 37.6623 275.645 44.8533C276.764 52.0443 276.39 59.3888 274.549 66.4291C272.707 73.4695 269.437 80.055 264.941 85.7753C267.296 88.7708 269.321 92.0115 270.981 95.4415L233.269 115.05L273.481 101.543C276.304 109.896 277.002 118.822 275.511 127.513C274.02 136.204 270.387 144.386 264.941 151.318C271.086 159.136 274.908 168.527 275.972 178.417C277.035 188.307 275.296 198.297 270.953 207.244C266.611 216.192 259.84 223.736 251.415 229.014C242.991 234.292 233.252 237.091 223.313 237.091C213.374 237.091 203.635 234.292 195.21 229.014C186.786 223.736 180.015 216.192 175.673 207.244C171.33 198.297 169.591 188.307 170.654 178.417C171.717 168.527 175.54 159.136 181.685 151.318C174.342 141.975 170.35 130.433 170.35 118.547C170.35 106.66 174.342 95.1184 181.685 85.7753Z" fill="white"/>
<path opacity="0.1" d="M276.275 118.547C276.294 130.436 272.3 141.984 264.941 151.318C271.086 159.136 274.908 168.527 275.971 178.417C277.035 188.307 275.296 198.297 270.953 207.244C266.611 216.192 259.84 223.736 251.415 229.014C242.991 234.292 233.252 237.091 223.313 237.091C213.374 237.091 203.635 234.292 195.21 229.014C186.786 223.736 180.015 216.192 175.672 207.244C171.33 198.297 169.591 188.307 170.654 178.417C171.717 168.527 175.54 159.136 181.684 151.318C174.586 142.299 276.275 112.598 276.275 118.547Z" fill="black"/>
<path d="M34.4767 170.67L22.5476 160.024C46.2291 155.615 69.9962 176.464 76.1981 206.818C76.4046 206.858 76.6089 206.909 76.8102 206.97L90.2617 162.817C91.2522 168.069 91.692 173.409 91.5741 178.752L102.065 158.365C106.304 181.171 96.2098 202.361 79.2637 207.44C80.6788 207.442 82.0921 207.34 83.4924 207.136C83.5568 207.127 83.6013 207.12 83.6013 207.12C83.7098 208.245 83.6775 209.38 83.5054 210.497C83.4315 211.123 83.1644 211.71 82.7413 212.177C82.2235 212.642 80.7648 213.283 78.8529 213.945C78.7058 213.996 78.5561 214.047 78.4038 214.098C77.1861 214.507 75.811 214.919 74.3921 215.299C72.6185 215.773 70.7765 216.195 69.0881 216.496C68.9047 216.528 68.7364 216.549 68.5777 216.562C68.5265 216.566 68.4816 216.565 68.433 216.568C68.3302 216.572 68.2297 216.575 68.1377 216.571C68.0872 216.569 68.041 216.564 67.9936 216.559C67.9162 216.553 67.8392 216.542 67.763 216.527C67.7204 216.518 67.6797 216.508 67.6401 216.497C67.5753 216.479 67.5118 216.456 67.45 216.43C67.4174 216.416 67.3843 216.402 67.3543 216.386C67.2972 216.355 67.2428 216.319 67.1919 216.279C67.1711 216.262 67.148 216.248 67.1289 216.23C67.0703 216.177 67.018 216.117 66.9731 216.052C66.9688 216.045 66.9629 216.04 66.9587 216.034C66.9084 215.956 66.8673 215.873 66.8366 215.786C66.8345 215.78 66.8336 215.774 66.8316 215.768C66.8032 215.684 66.7821 215.597 66.7685 215.509C66.7675 215.503 66.7652 215.498 66.7643 215.492L66.7669 215.495C66.4586 213.46 69.3079 209.153 69.3444 207.934C69.3793 206.767 72.2376 206.454 74.5726 206.612L30.6787 171.151C31.9344 170.917 33.2025 170.757 34.4767 170.67Z" fill="#F2F2F2"/>
<path d="M-6.10352e-05 213.176C-6.10352e-05 218.476 37.3372 236.632 81.8181 236.632C126.299 236.632 161.079 218.476 161.079 213.176C161.079 207.877 126.299 217.441 81.8181 217.441C37.3372 217.441 -6.10352e-05 207.877 -6.10352e-05 213.176Z" fill="#3F3D56"/>
<path opacity="0.1" d="M-6.10352e-05 213.176C-6.10352e-05 218.476 37.3372 236.632 81.8181 236.632C126.299 236.632 161.079 218.476 161.079 213.176C161.079 207.877 126.299 217.441 81.8181 217.441C37.3372 217.441 -6.10352e-05 207.877 -6.10352e-05 213.176Z" fill="black"/>
<path d="M80.5396 222.772C36.0588 222.772 -6.10352e-05 218.476 -6.10352e-05 213.176C-6.10352e-05 207.877 36.0588 203.581 80.5396 203.581C125.02 203.581 161.079 207.877 161.079 213.176C161.079 218.476 125.02 222.772 80.5396 222.772Z" fill="#3F3D56"/>
<path opacity="0.1" d="M80.5698 218.902C71.0346 218.902 63.3048 216.324 63.3048 213.143C63.3048 209.962 71.0346 207.383 80.5698 207.383C90.1049 207.383 97.8347 209.962 97.8347 213.143C97.8347 216.324 90.1049 218.902 80.5698 218.902Z" fill="black"/>
<path d="M116.468 165.406C116.468 189.859 101.139 209.647 82.1959 209.647L116.468 165.406Z" fill="#3F3D56"/>
<path d="M82.1958 209.647C82.1958 184.918 65.0897 164.909 43.9498 164.909L82.1958 209.647Z" fill="white"/>
<path d="M104.051 167.622C104.051 190.851 94.2758 209.647 82.1959 209.647L104.051 167.622Z" fill="white"/>
<path d="M82.1958 209.647C82.1958 178.049 62.4238 152.481 37.9894 152.481L82.1958 209.647Z" fill="#3F3D56"/>
<path d="M89.406 209.959C89.406 209.959 84.5456 209.809 83.0808 208.765C81.616 207.721 75.6043 206.475 75.2409 208.149C74.8776 209.823 67.9367 216.475 73.424 216.52C78.9114 216.564 86.1742 215.664 87.6362 214.773C89.0982 213.882 89.406 209.959 89.406 209.959Z" fill="#A8A8A8"/>
<path opacity="0.2" d="M73.3261 215.937C78.8135 215.981 86.0763 215.081 87.5383 214.19C88.6516 213.511 89.0953 211.076 89.2438 209.952C89.3466 209.957 89.406 209.959 89.406 209.959C89.406 209.959 89.0982 213.882 87.6362 214.773C86.1742 215.664 78.9114 216.564 73.424 216.52C71.8401 216.507 71.2929 215.943 71.323 215.107C71.543 215.612 72.1471 215.927 73.3261 215.937Z" fill="black"/>
<path d="M510.441 146.003L504.276 155.775C506.34 158.539 507.805 161.541 506.865 163.527C504.55 168.422 499.229 174.75 496.392 178.125C493.554 181.5 493.159 190.533 473.908 189.453C454.656 188.373 446.869 179.653 446.869 179.653C446.869 179.653 445.163 195.471 436.978 201.132C437.672 202.091 438.603 202.853 439.679 203.342C448.328 207.383 457.766 239.657 464.308 257.386C471.445 276.726 460.599 273.357 460.599 273.357C456.966 273.417 453.627 273.609 450.564 273.9C447 283.344 441.348 303.536 447.977 324.333C452.613 338.878 451.638 354.208 449.565 365.754L453.893 370.387C458.718 371.927 460.149 374.934 460.149 374.934L471.255 390.411L469.415 391.744L462.758 382.535C462.758 382.535 461.306 383.834 459.311 387.919C457.317 392.004 462.989 407.949 463.09 409.114C463.19 410.279 458.037 418.549 450.83 421.127C450.337 421.313 449.811 421.393 449.286 421.361L449.946 429.029L446.031 428.975L444.828 414.992C444.828 414.992 441.808 434.425 441.199 436.434C440.59 438.443 434.313 438.201 427.749 439.158C421.185 440.115 414.661 432.46 421.347 428.362C428.032 424.265 428.87 411.28 428.87 411.28C425.706 401.771 432.853 389.416 432.853 389.416L433.671 380.737C433.827 381.089 434.059 381.401 434.351 381.651C434.644 381.901 434.988 382.083 435.359 382.183L434.382 370.827C426.922 362.239 417.171 350.776 412.122 343.857C403.257 331.708 403.733 328.146 403.733 328.146L394.645 287.815C391.627 288.044 388.594 287.987 385.587 287.646C379.436 286.717 381.731 266.498 385.288 250.195C384.355 246.334 382.879 241.018 380.556 233.71C379.44 230.192 378.705 226.564 378.363 222.888C376.958 208.008 382.094 195.566 384.326 190.972L383.554 189.021C383.554 189.021 376.451 181.259 382.01 168.123C381.692 166.735 381.472 165.325 381.352 163.905C380.853 157.629 382.24 151.347 385.336 145.866C385.373 145.802 385.41 145.737 385.449 145.68L385.489 145.617L385.5 145.616C385.551 145.543 385.607 145.472 385.666 145.406C387.924 143.105 399.44 138.749 401.785 137.877C401.914 137.796 402.058 137.743 402.208 137.72C403.072 137.646 402.164 133.853 401.188 130.5C399.975 129.556 398.9 128.447 397.994 127.205C393.163 125.233 388.903 122.079 385.607 118.031C382.311 113.983 380.084 109.171 379.13 104.038C378.176 98.9039 378.525 93.6126 380.147 88.6494C381.768 83.6861 384.609 79.2099 388.409 75.6316C387.069 73.7585 386.138 71.6236 385.678 69.3663C385.219 67.109 385.24 64.78 385.741 62.5314C386.241 60.2829 387.21 58.1653 388.584 56.317C389.958 54.4686 391.707 52.9312 393.715 51.805C390.569 54.4144 388.512 58.1072 387.948 62.1575C387.385 66.2077 388.356 70.3224 390.67 73.6926C391.019 73.421 391.374 73.1564 391.735 72.8989C390.869 70.5359 390.558 68.005 390.828 65.5026C391.098 63.0002 391.941 60.5937 393.291 58.4702C394.641 56.3467 396.462 54.5632 398.613 53.2583C400.763 51.9535 403.185 51.1624 405.691 50.9465C408.197 50.7306 410.718 51.0957 413.06 52.0135C415.402 52.9313 417.501 54.377 419.194 56.2384C420.887 58.0997 422.128 60.3266 422.821 62.746C423.514 65.1654 423.641 67.7122 423.191 70.1885C428.007 72.4882 432.152 75.9872 435.229 80.3502C438.306 84.7133 440.212 89.7941 440.764 95.1058C441.315 100.417 440.494 105.782 438.38 110.685C436.265 115.588 432.928 119.865 428.687 123.107C431.804 124.561 435.222 125.253 438.658 125.127C442.095 125.001 445.452 124.059 448.454 122.38C445.311 124.982 441.501 126.646 437.458 127.182C433.415 127.718 429.303 127.104 425.592 125.41C424.203 127.954 422.167 130.085 419.69 131.588C419.953 132.333 420.305 133.043 420.739 133.703L421.734 132.908L426.05 137.622L437.184 139.793C437.184 139.793 444.304 140.745 452.413 148.655C460.522 156.564 474.152 160.477 474.152 160.477L484.852 157.598C484.852 157.598 497.158 150.669 497.024 149.115C497.003 148.868 497.298 148.943 497.798 149.26L503.817 137.183C503.817 137.183 515.095 109.212 522.328 116.023C529.56 122.835 510.441 146.003 510.441 146.003ZM430.99 331.399L430.712 328.169C427.063 323.011 425.016 310.291 423.874 298.5L425.533 327.05C427.602 328.155 429.451 329.629 430.99 331.399ZM445.882 391.794L445.941 396.114C447.12 398.227 448.006 400.492 448.574 402.844C448.914 400.781 447.491 396.142 445.882 391.794Z" fill="#F2F2F2"/>
<path d="M247.993 431.626C247.993 444.589 339.321 489 448.123 489C556.926 489 642 444.589 642 431.626C642 418.663 556.926 442.058 448.123 442.058C339.321 442.058 247.993 418.663 247.993 431.626Z" fill="#3F3D56"/>
<path opacity="0.1" d="M247.993 431.626C247.993 444.589 339.321 489 448.123 489C556.926 489 642 444.589 642 431.626C642 418.663 556.926 442.058 448.123 442.058C339.321 442.058 247.993 418.663 247.993 431.626Z" fill="black"/>
<path d="M444.996 455.097C336.194 455.097 247.993 444.589 247.993 431.626C247.993 418.663 336.194 408.155 444.996 408.155C553.798 408.155 642 418.663 642 431.626C642 444.589 553.798 455.097 444.996 455.097Z" fill="#3F3D56"/>
<path opacity="0.1" d="M443.773 441.602C407.751 441.602 378.55 435.299 378.55 427.524C378.55 419.748 407.751 413.445 443.773 413.445C479.795 413.445 508.996 419.748 508.996 427.524C508.996 435.299 479.795 441.602 443.773 441.602Z" fill="black"/>
<path d="M450.413 121.664C447.685 119.589 445.487 116.897 443.998 113.808C442.509 110.72 441.772 107.323 441.847 103.895C441.922 100.467 442.807 97.1049 444.43 94.0847C446.052 91.0645 448.366 88.4716 451.182 86.5181C448.434 87.7614 445.974 89.5642 443.961 91.8117C441.948 94.0591 440.424 96.7018 439.488 99.5713C438.552 102.441 438.224 105.474 438.525 108.477C438.826 111.481 439.748 114.388 441.235 117.015C442.721 119.642 444.738 121.929 447.156 123.732C449.575 125.535 452.343 126.814 455.283 127.487C458.223 128.16 461.271 128.212 464.233 127.641C467.194 127.069 470.004 125.886 472.483 124.167C468.921 125.778 464.989 126.396 461.104 125.956C457.219 125.515 453.525 124.032 450.413 121.664Z" fill="#2F2E41"/>
<path d="M411.265 141.913H407.759C405.168 145.609 403.409 149.823 402.602 154.265C401.795 158.707 401.96 163.271 403.085 167.643C406.98 182.457 403.864 185.186 403.864 185.186C403.864 185.186 389.84 205.068 395.294 229.238C400.747 253.409 399.189 256.137 399.189 256.137L408.928 236.645L414.381 185.186L411.265 141.913Z" fill="white"/>
<path opacity="0.1" d="M411.265 141.933H407.759C405.168 145.629 403.409 149.843 402.602 154.285C401.795 158.727 401.96 163.291 403.085 167.663C406.98 182.477 403.864 185.206 403.864 185.206C403.864 185.206 389.84 205.088 395.294 229.258C400.747 253.428 399.189 256.157 399.189 256.157L408.928 236.665L414.381 185.206L411.265 141.933Z" fill="black"/>
<path d="M436.001 128.074C418.79 128.074 404.838 114.11 404.838 96.886C404.838 79.6616 418.79 65.6984 436.001 65.6984C453.212 65.6984 467.164 79.6616 467.164 96.886C467.164 114.11 453.212 128.074 436.001 128.074Z" fill="#2F2E41"/>
<path d="M423.536 123.006C423.536 123.006 426.652 135.481 425.094 135.481C423.536 135.481 418.082 142.108 418.082 142.108L414.576 154.973L417.303 164.329L426.652 162.38L438.338 149.515L441.844 146.006L444.96 134.701C444.96 134.701 441.065 130.023 443.792 126.124C446.518 122.226 423.536 123.006 423.536 123.006Z" fill="#FBBEBE"/>
<path opacity="0.1" d="M423.536 123.006C423.536 123.006 426.652 135.481 425.094 135.481C423.536 135.481 418.082 142.108 418.082 142.108L414.576 154.973L417.303 164.329L426.652 162.38L438.338 149.515L441.844 146.006L444.96 134.701C444.96 134.701 441.065 130.023 443.792 126.124C446.518 122.226 423.536 123.006 423.536 123.006Z" fill="black"/>
<path d="M517.804 157.702L526.374 143.667C526.374 143.667 535.625 123.183 542.247 130.59C548.869 137.997 532.217 153.024 532.217 153.024L523.647 164.329L517.804 157.702Z" fill="#FBBEBE"/>
<path d="M404.059 279.723L410.291 325.335C410.291 325.335 409.512 328.843 417.303 341.708C425.094 354.573 446.129 382.642 446.129 382.642L452.362 370.947C452.362 370.947 444.96 333.911 432.106 326.115L433.664 269.977L404.059 279.723Z" fill="#FBBEBE"/>
<path opacity="0.1" d="M404.059 279.723L410.291 325.335C410.291 325.335 409.512 328.843 417.303 341.708C425.094 354.573 446.129 382.642 446.129 382.642L452.362 370.947C452.362 370.947 444.96 333.911 432.106 326.115L433.664 269.977L404.059 279.723Z" fill="black"/>
<path d="M452.361 366.268L443.792 382.642C443.792 382.642 450.803 402.524 448.077 404.473C445.35 406.422 441.844 423.965 449.245 422.016C456.646 420.067 462.49 412.27 462.49 411.101C462.49 409.931 458.205 393.558 460.542 389.659C462.879 385.761 464.437 384.591 464.437 384.591L470.28 394.337L472.228 393.168L462.49 376.794C462.49 376.794 461.321 373.676 456.646 371.726L452.361 366.268Z" fill="#2F2E41"/>
<path opacity="0.1" d="M452.361 366.268L443.792 382.642C443.792 382.642 450.803 402.524 448.077 404.473C445.35 406.422 441.844 423.965 449.245 422.016C456.646 420.067 462.49 412.27 462.49 411.101C462.49 409.931 458.205 393.558 460.542 389.659C462.879 385.761 464.437 384.591 464.437 384.591L470.28 394.337L472.228 393.168L462.49 376.794C462.49 376.794 461.321 373.676 456.646 371.726L452.361 366.268Z" fill="black"/>
<path d="M433.573 273.252C433.573 273.252 430.547 316.368 437.169 327.674V383.812L446.129 384.981C446.129 384.981 461.321 354.573 454.699 325.335C448.077 296.097 464.437 269.977 464.437 269.977L433.573 273.252Z" fill="#FBBEBE"/>
<path d="M435.806 132.557C426.77 132.557 419.445 125.226 419.445 116.183C419.445 107.14 426.77 99.8098 435.806 99.8098C444.842 99.8098 452.167 107.14 452.167 116.183C452.167 125.226 444.842 132.557 435.806 132.557Z" fill="#FBBEBE"/>
<path d="M419.251 159.261L435.611 138.599L444.96 132.362L448.856 137.43L459.763 140.549C459.763 140.549 466.775 142.108 474.176 150.685C481.577 159.261 494.821 164.329 494.821 164.329L505.729 162.38C505.729 162.38 518.583 156.532 518.583 154.973C518.583 153.413 529.88 165.499 527.153 170.177C524.426 174.855 518.583 180.703 515.467 183.821C512.351 186.94 511.182 195.906 492.095 193.178C473.007 190.449 465.996 181.092 465.996 181.092C465.996 181.092 462.49 199.025 452.362 202.534C442.234 206.042 409.123 208.382 409.123 208.382L402.111 184.991C402.111 184.991 394.32 174.855 404.838 160.041C404.838 160.041 405.04 151.756 406.17 146.243C406.61 144.098 407.19 142.373 407.954 141.718C410.681 139.379 425.094 135.481 425.094 135.481C425.094 135.481 422.757 143.277 421.588 143.667C420.419 144.057 417.693 157.312 419.251 159.261Z" fill="white"/>
<path d="M471.644 275.63C452.027 274.265 440.605 277.481 435.51 279.934C434.563 280.363 433.671 280.904 432.853 281.547C432.479 281.863 432.3 282.109 432.3 282.257C432.3 283.427 405.422 285.766 395.683 283.427C385.945 281.087 402.306 230.798 406.591 226.509C410.875 222.221 408.566 206.526 408.566 206.526C408.566 206.526 417.108 204.678 419.445 205.458C421.783 206.237 433.858 204.288 438.143 201.949C442.428 199.61 447.882 201.169 451.388 200.39C452.954 200.043 453.744 200.628 454.138 201.384C454.75 202.518 455.675 203.453 456.802 204.078C465.072 208.845 471.71 241.811 476.708 260.036C482.161 279.918 471.644 275.63 471.644 275.63Z" fill="#2F2E41"/>
<path d="M435.611 380.303L434.053 388.879C434.053 388.879 425.873 400.575 428.21 410.321C428.21 410.321 426.262 423.186 419.251 426.694C412.239 430.203 418.082 438.39 424.704 438C431.326 437.61 437.559 438.39 438.338 436.441C439.117 434.491 443.792 415.389 443.792 415.389V429.423L447.687 429.813V412.27C447.687 412.27 450.803 406.423 446.519 396.676L447.6 381.716C447.6 381.716 436.78 384.201 435.611 380.303Z" fill="#2F2E41"/>
<path d="M436.001 82.0719C426.965 82.0719 419.64 74.7413 419.64 65.6984C419.64 56.6556 426.965 49.325 436.001 49.325C445.037 49.325 452.362 56.6556 452.362 65.6984C452.362 74.7413 445.037 82.0719 436.001 82.0719Z" fill="#2F2E41"/>
<path d="M423.415 75.6474C421.359 74.0832 419.702 72.054 418.58 69.7258C417.457 67.3976 416.902 64.8366 416.958 62.2522C417.015 59.6679 417.682 57.1337 418.905 54.8569C420.128 52.5801 421.872 50.6254 423.995 49.1528C421.923 50.0901 420.069 51.4492 418.552 53.1434C417.034 54.8377 415.886 56.8299 415.18 58.993C414.475 61.1561 414.227 63.4427 414.454 65.7068C414.681 67.9709 415.376 70.1629 416.497 72.143C417.617 74.123 419.137 75.8477 420.961 77.2069C422.784 78.5662 424.871 79.5302 427.087 80.0374C429.303 80.5447 431.601 80.5841 433.834 80.1531C436.066 79.7221 438.185 78.8302 440.053 77.5343C437.368 78.7492 434.404 79.2151 431.475 78.883C428.546 78.5509 425.762 77.4329 423.415 75.6474Z" fill="#2F2E41"/>
<path d="M435.611 116.378C426.36 116.378 418.861 110.444 418.861 103.124C418.861 95.8031 426.36 89.8688 435.611 89.8688C444.862 89.8688 452.362 95.8031 452.362 103.124C452.362 110.444 444.862 116.378 435.611 116.378Z" fill="#2F2E41"/>
<path opacity="0.1" d="M435.51 279.934C434.563 280.363 433.671 280.904 432.853 281.548C432.647 277.863 431.455 255.584 432.885 255.943L435.51 279.934Z" fill="black"/>
<path d="M572.94 148.509C542.569 148.509 517.948 123.869 517.948 93.4736C517.948 63.0785 542.569 38.4385 572.94 38.4385C603.312 38.4385 627.932 63.0785 627.932 93.4736C627.932 123.869 603.312 148.509 572.94 148.509Z" fill="#FF6584"/>
<path d="M536.269 138.876C535.823 137.914 537.279 136.29 539.521 135.248C541.763 134.207 543.943 134.142 544.389 135.104C544.835 136.065 543.379 137.689 541.136 138.731C538.894 139.773 536.715 139.838 536.269 138.876Z" fill="#FBBEBE"/>
</g>
<defs>
<clipPath id="clip0_2_204">
<rect width="642" height="489" fill="white" transform="matrix(-1 0 0 1 642 0)"/>
</clipPath>
</defs>
</svg>
