<svg width="415" height="344" viewBox="0 0 415 344" fill="none" xmlns="http://www.w3.org/2000/svg">
<path d="M118.287 140.587L289.128 140.587C293.323 140.587 296.724 137.186 296.724 132.991V7.90941C296.724 3.71411 293.323 0.313126 289.128 0.313126L118.287 0.313126C114.092 0.313126 110.691 3.71411 110.691 7.90941L110.691 132.991C110.691 137.186 114.092 140.587 118.287 140.587Z" fill="#DCDCDC"/>
<path d="M289.128 140.9H118.287C116.19 140.898 114.18 140.064 112.697 138.581C111.214 137.099 110.38 135.088 110.378 132.991V7.9094C110.38 5.81241 111.214 3.80196 112.697 2.31916C114.18 0.836366 116.19 0.0023134 118.287 0L289.128 0C291.225 0.00231321 293.235 0.836353 294.718 2.31914C296.201 3.80193 297.035 5.81237 297.038 7.9094V132.991C297.035 135.088 296.201 137.099 294.718 138.581C293.235 140.064 291.225 140.898 289.128 140.9ZM118.287 0.626246C116.356 0.628459 114.505 1.3965 113.14 2.76188C111.774 4.12725 111.006 5.97847 111.004 7.9094V132.991C111.006 134.922 111.774 136.773 113.14 138.139C114.505 139.504 116.356 140.272 118.287 140.274H289.128C291.059 140.272 292.91 139.504 294.275 138.139C295.641 136.773 296.409 134.922 296.411 132.991V7.9094C296.409 5.97843 295.641 4.12722 294.275 2.76185C292.91 1.39649 291.059 0.628459 289.128 0.626246H118.287Z" fill="#292A2E"/>
<path d="M132.829 12.0969L120.619 13.2547C119.358 13.3743 118.432 14.4936 118.552 15.7547L119.71 27.965C119.829 29.2261 120.949 30.1515 122.21 30.0319L134.42 28.874C135.681 28.7544 136.607 27.6352 136.487 26.374L135.329 14.1638C135.21 12.9027 134.09 11.9773 132.829 12.0969Z" fill="#292A2E"/>
<path d="M167.601 38.5843L155.406 37.2722C154.146 37.1367 153.016 38.0479 152.88 39.3074L151.568 51.502C151.432 52.7615 152.344 53.8924 153.603 54.0279L165.798 55.34C167.057 55.4755 168.188 54.5643 168.324 53.3048L169.636 41.1102C169.771 39.8507 168.86 38.7198 167.601 38.5843Z" fill="#DCDCDC"/>
<path d="M166.048 55.7336C165.951 55.7336 165.853 55.7284 165.757 55.7181L153.563 54.4059C152.858 54.3293 152.212 53.9762 151.767 53.4242C151.323 52.8721 151.115 52.1662 151.19 51.4613L152.502 39.2673C152.54 38.9182 152.646 38.5798 152.814 38.2716C152.982 37.9634 153.21 37.6913 153.483 37.471C153.757 37.2507 154.071 37.0863 154.408 36.9874C154.745 36.8885 155.098 36.857 155.447 36.8946L167.641 38.2067C168.346 38.2828 168.992 38.6357 169.437 39.1879C169.882 39.7401 170.089 40.4463 170.014 41.1514L168.702 53.3453C168.631 54.0004 168.321 54.6064 167.832 55.0472C167.342 55.4879 166.707 55.7324 166.048 55.7336H166.048ZM165.838 54.9622C166.342 55.0166 166.848 54.8682 167.243 54.5498C167.638 54.2314 167.891 53.769 167.945 53.2644L169.258 41.0701C169.312 40.5654 169.164 40.0598 168.845 39.6645C168.527 39.2692 168.064 39.0166 167.56 38.9622L155.365 37.6504C155.115 37.6235 154.862 37.6461 154.621 37.7169C154.38 37.7877 154.155 37.9053 153.959 38.063C153.764 38.2207 153.601 38.4154 153.481 38.636C153.36 38.8566 153.284 39.0987 153.257 39.3486L151.945 51.5426C151.892 52.0472 152.04 52.5525 152.359 52.9477C152.677 53.3428 153.139 53.5956 153.644 53.6505L165.838 54.9622Z" fill="#292A2E"/>
<path d="M221.711 57.9187C221.649 57.9187 221.588 57.9035 221.533 57.8742C221.477 57.8449 221.43 57.8025 221.396 57.7507C213.658 46.2419 201.92 44.1466 193.433 44.4126C187.694 44.6311 182.028 45.7738 176.653 47.7969C176.56 47.8345 176.456 47.8339 176.363 47.7953C176.271 47.7566 176.198 47.683 176.159 47.5904C176.121 47.4979 176.12 47.3939 176.158 47.3011C176.196 47.2083 176.269 47.1343 176.361 47.095C181.822 45.0385 187.579 43.8762 193.409 43.6529C202.085 43.3801 214.095 45.5294 222.026 57.3262C222.065 57.3834 222.087 57.4499 222.091 57.5187C222.094 57.5875 222.079 57.656 222.047 57.7168C222.014 57.7776 221.966 57.8285 221.907 57.864C221.848 57.8995 221.78 57.9182 221.711 57.9183V57.9187Z" fill="#292A2E"/>
<path d="M221.852 58.0741C221.817 58.074 221.782 58.0691 221.748 58.0597L213.962 55.8606C213.865 55.8332 213.783 55.7684 213.733 55.6805C213.684 55.5926 213.672 55.4887 213.699 55.3917C213.727 55.2947 213.791 55.2125 213.879 55.1632C213.967 55.114 214.071 55.1017 214.168 55.1291L221.589 57.2244L223.685 49.8037C223.714 49.7089 223.779 49.6293 223.866 49.5819C223.953 49.5346 224.056 49.5231 224.151 49.5501C224.247 49.5771 224.328 49.6404 224.377 49.7264C224.427 49.8124 224.44 49.9143 224.416 50.0104L222.217 57.7967C222.195 57.8764 222.147 57.9466 222.081 57.9967C222.015 58.0468 221.935 58.0739 221.852 58.0741Z" fill="#292A2E"/>
<path d="M234.064 61.4829L221.854 62.6408C220.593 62.7604 219.667 63.8797 219.787 65.1408L220.945 77.351C221.064 78.6121 222.184 79.5375 223.445 79.4179L235.655 78.2601C236.916 78.1405 237.842 77.0212 237.722 75.7601L236.564 63.5499C236.445 62.2887 235.325 61.3633 234.064 61.4829Z" fill="#367CFF"/>
<path d="M273.97 23.9457L261.731 23.1587C260.466 23.0774 259.376 24.0363 259.294 25.3005L258.507 37.5402C258.426 38.8044 259.385 39.8951 260.649 39.9763L272.889 40.7634C274.153 40.8446 275.244 39.8857 275.325 38.6216L276.112 26.3818C276.193 25.1177 275.235 24.027 273.97 23.9457Z" fill="#292A2E"/>
<path d="M280.886 63.8876L268.691 62.5756C267.432 62.4401 266.301 63.3513 266.165 64.6108L264.853 76.8054C264.718 78.0649 265.629 79.1958 266.889 79.3313L279.083 80.6433C280.343 80.7789 281.474 79.8677 281.609 78.6082L282.921 66.4136C283.057 65.154 282.146 64.0232 280.886 63.8876Z" fill="#0CBC8B"/>
<path d="M213.945 103.612L201.735 104.77C200.474 104.889 199.549 106.009 199.668 107.27L200.826 119.48C200.946 120.741 202.065 121.667 203.326 121.547L215.536 120.389C216.797 120.27 217.723 119.15 217.603 117.889L216.445 105.679C216.326 104.418 215.207 103.492 213.945 103.612Z" fill="#DCDCDC"/>
<path d="M203.108 121.938C202.443 121.936 201.803 121.688 201.311 121.24C200.819 120.792 200.512 120.178 200.448 119.516L199.29 107.306C199.224 106.6 199.441 105.897 199.893 105.351C200.344 104.804 200.994 104.459 201.7 104.392L213.909 103.234C214.259 103.201 214.612 103.237 214.947 103.34C215.283 103.443 215.595 103.611 215.866 103.835C216.136 104.059 216.36 104.334 216.525 104.644C216.689 104.954 216.791 105.294 216.824 105.643L217.982 117.853C218.048 118.559 217.831 119.262 217.38 119.809C216.928 120.355 216.278 120.7 215.572 120.767L203.363 121.925C203.277 121.933 203.192 121.938 203.108 121.938ZM214.166 103.982C214.106 103.982 214.044 103.985 213.983 103.99L201.771 105.147C201.266 105.195 200.801 105.442 200.477 105.833C200.154 106.225 199.999 106.728 200.046 107.233L201.204 119.443C201.253 119.948 201.5 120.413 201.891 120.736C202.282 121.059 202.785 121.215 203.29 121.168L215.5 120.01C216.005 119.961 216.471 119.714 216.794 119.323C217.117 118.932 217.272 118.429 217.225 117.924L216.067 105.714C216.022 105.24 215.802 104.8 215.451 104.48C215.099 104.159 214.641 103.981 214.165 103.98L214.166 103.982Z" fill="#292A2E"/>
<path d="M135.215 99.4823L123.005 100.64C121.743 100.76 120.818 101.879 120.938 103.14L122.096 115.35C122.215 116.612 123.334 117.537 124.596 117.417L136.806 116.259C138.067 116.14 138.992 115.021 138.873 113.759L137.715 101.549C137.595 100.288 136.476 99.3627 135.215 99.4823Z" fill="#367CFF"/>
<path d="M232.904 55.2621C232.89 55.262 232.875 55.2613 232.861 55.2598C232.811 55.2541 232.763 55.2386 232.719 55.2144C232.676 55.1901 232.637 55.1575 232.606 55.1184C232.575 55.0793 232.552 55.0345 232.539 54.9865C232.525 54.9385 232.521 54.8883 232.527 54.8387C233.098 51.0022 234.284 47.283 236.039 43.8243C239.839 36.4587 245.799 32.2342 253.269 31.6049C253.369 31.5965 253.469 31.6282 253.546 31.6933C253.623 31.7583 253.671 31.8512 253.679 31.9517C253.688 32.0521 253.656 32.1518 253.591 32.2288C253.526 32.3058 253.433 32.3538 253.333 32.3623C235.91 33.8276 233.306 54.7148 233.281 54.9258C233.271 55.0183 233.226 55.1036 233.157 55.1656C233.087 55.2276 232.997 55.2619 232.904 55.2621Z" fill="#292A2E"/>
<path d="M249.655 36.1281C249.58 36.1282 249.506 36.1059 249.444 36.0643C249.381 36.0226 249.333 35.9633 249.304 35.8939C249.275 35.8246 249.267 35.7482 249.282 35.6745C249.296 35.6008 249.332 35.533 249.385 35.4798L252.897 31.953L249.37 28.4418C249.334 28.4068 249.305 28.3649 249.285 28.3186C249.265 28.2723 249.254 28.2224 249.254 28.172C249.253 28.1215 249.263 28.0715 249.282 28.0247C249.301 27.978 249.329 27.9355 249.364 27.8998C249.4 27.864 249.442 27.8357 249.489 27.8165C249.536 27.7973 249.586 27.7876 249.636 27.7879C249.687 27.7882 249.737 27.7986 249.783 27.8184C249.829 27.8382 249.871 27.8671 249.906 27.9033L253.702 31.6828C253.773 31.7541 253.813 31.8507 253.813 31.9515C253.813 32.0522 253.773 32.1489 253.702 32.2201L249.923 36.016C249.888 36.0514 249.846 36.0796 249.8 36.0988C249.754 36.1181 249.705 36.128 249.655 36.1281Z" fill="#292A2E"/>
<path d="M208.2 97.9357C208.119 97.9357 208.039 97.9096 207.974 97.8613C207.909 97.8129 207.861 97.7448 207.837 97.6671C207.78 97.4813 202.315 79.026 216.463 71.3708C216.507 71.3459 216.555 71.33 216.605 71.3241C216.656 71.3182 216.706 71.3223 216.755 71.3363C216.804 71.3503 216.849 71.3738 216.888 71.4055C216.928 71.4371 216.96 71.4763 216.984 71.5208C217.008 71.5652 217.023 71.614 217.028 71.6643C217.033 71.7146 217.028 71.7653 217.013 71.8136C216.998 71.8619 216.974 71.9067 216.941 71.9455C216.909 71.9842 216.869 72.0161 216.824 72.0392C203.228 79.395 208.51 97.2631 208.564 97.4429C208.582 97.4997 208.586 97.5598 208.576 97.6184C208.566 97.677 208.542 97.7323 208.507 97.7801C208.471 97.8279 208.425 97.8668 208.372 97.8935C208.319 97.9203 208.261 97.9342 208.201 97.9342L208.2 97.9357Z" fill="#292A2E"/>
<path d="M215.018 76.4401C214.956 76.44 214.895 76.4249 214.84 76.396C214.786 76.3672 214.739 76.3254 214.704 76.2744C214.669 76.2234 214.647 76.1646 214.64 76.1032C214.633 76.0419 214.641 75.9797 214.664 75.9221L216.249 71.8496L212.177 70.2627C212.084 70.225 212.011 70.1526 211.972 70.0611C211.932 69.9696 211.93 69.8663 211.966 69.7735C212.002 69.6806 212.074 69.6057 212.164 69.5647C212.255 69.5237 212.358 69.52 212.452 69.5544L216.879 71.2773C216.925 71.2954 216.968 71.3225 217.004 71.3571C217.04 71.3916 217.069 71.4329 217.089 71.4786C217.109 71.5243 217.12 71.5735 217.121 71.6234C217.122 71.6733 217.113 71.7229 217.095 71.7694L215.372 76.1961C215.344 76.2678 215.296 76.3294 215.232 76.373C215.169 76.4165 215.094 76.4399 215.018 76.4401Z" fill="#292A2E"/>
<path d="M160.938 35.1663C160.837 35.1663 160.74 35.1263 160.669 35.055C160.598 34.9838 160.558 34.8871 160.558 34.7863C160.558 29.0137 158.854 24.6072 155.493 21.6895C149.527 16.5112 140.248 17.7595 140.155 17.7728C140.055 17.787 139.953 17.7611 139.873 17.7006C139.792 17.6401 139.739 17.5501 139.725 17.4504C139.71 17.3506 139.736 17.2492 139.797 17.1686C139.857 17.0879 139.947 17.0346 140.047 17.0204C140.44 16.9638 149.756 15.7071 155.988 21.1123C159.525 24.1808 161.318 28.7815 161.318 34.7863C161.318 34.8362 161.308 34.8856 161.289 34.9317C161.27 34.9778 161.242 35.0197 161.206 35.055C161.171 35.0903 161.129 35.1183 161.083 35.1374C161.037 35.1565 160.988 35.1663 160.938 35.1663Z" fill="#292A2E"/>
<path d="M160.956 35.3024C160.944 35.3024 160.932 35.3024 160.92 35.3024C160.87 35.2977 160.822 35.2833 160.778 35.2599C160.734 35.2366 160.695 35.2048 160.663 35.1663L157.246 31.0399C157.181 30.9622 157.15 30.8622 157.16 30.7618C157.169 30.6614 157.218 30.5689 157.296 30.5046C157.374 30.4403 157.474 30.4095 157.574 30.419C157.674 30.4284 157.767 30.4773 157.831 30.555L161.008 34.3904L164.841 31.2166C164.88 31.1848 164.924 31.1608 164.972 31.1461C165.019 31.1315 165.069 31.1263 165.119 31.131C165.169 31.1357 165.217 31.1502 165.261 31.1735C165.305 31.1968 165.344 31.2287 165.376 31.2671C165.408 31.3056 165.432 31.3499 165.447 31.3976C165.461 31.4453 165.466 31.4954 165.462 31.5451C165.457 31.5948 165.443 31.6431 165.419 31.6872C165.396 31.7313 165.364 31.7703 165.326 31.8022L161.198 35.2165C161.129 35.2723 161.044 35.3026 160.956 35.3024Z" fill="#292A2E"/>
<path d="M169.358 77.0868H157.093C155.826 77.0868 154.799 78.1138 154.799 79.3805V91.6455C154.799 92.9123 155.826 93.9392 157.093 93.9392H169.358C170.625 93.9392 171.652 92.9123 171.652 91.6455V79.3805C171.652 78.1138 170.625 77.0868 169.358 77.0868Z" fill="#0CBC8B"/>
<path d="M200.595 99.5017C200.51 99.5016 200.428 99.4732 200.362 99.4211C200.295 99.369 200.248 99.2961 200.227 99.2141C195.99 82.2659 175.275 83.4545 175.069 83.4686C175.019 83.472 174.969 83.4655 174.922 83.4495C174.874 83.4335 174.83 83.4083 174.793 83.3754C174.755 83.3425 174.724 83.3025 174.702 83.2577C174.68 83.2129 174.667 83.1642 174.663 83.1143C174.66 83.0643 174.666 83.0143 174.682 82.9669C174.698 82.9195 174.724 82.8757 174.756 82.838C174.789 82.8004 174.829 82.7696 174.874 82.7473C174.919 82.7251 174.968 82.712 175.018 82.7086C178.833 82.5795 182.644 83.081 186.296 84.1929C191.719 85.8873 198.666 89.8367 200.964 99.0279C200.976 99.0763 200.978 99.1266 200.971 99.176C200.964 99.2254 200.947 99.2729 200.921 99.3157C200.895 99.3585 200.862 99.3958 200.821 99.4255C200.781 99.4552 200.736 99.4767 200.687 99.4888C200.657 99.497 200.626 99.5014 200.595 99.5017Z" fill="#292A2E"/>
<path d="M200.648 99.6298C200.569 99.6298 200.492 99.6052 200.428 99.5595L196.127 96.5077C196.045 96.4493 195.989 96.3606 195.973 96.2613C195.956 96.1619 195.979 96.0599 196.038 95.9778C196.096 95.8956 196.185 95.8401 196.284 95.8233C196.384 95.8065 196.485 95.8299 196.568 95.8883L200.553 98.717L203.395 94.597C203.452 94.5148 203.54 94.4588 203.639 94.441C203.738 94.4233 203.839 94.4453 203.922 94.5023C204.004 94.5593 204.061 94.6466 204.08 94.7452C204.098 94.8438 204.077 94.9457 204.02 95.0287L200.96 99.4656C200.932 99.5071 200.895 99.5424 200.853 99.5696C200.811 99.5968 200.763 99.6153 200.714 99.6241C200.692 99.6279 200.67 99.6298 200.648 99.6298Z" fill="#292A2E"/>
<path d="M387.466 344L388.212 343.856L376.547 227.943L375.801 228.087L387.466 344Z" fill="#494949"/>
<path d="M344.032 344L344.778 343.856L333.114 227.943L332.368 228.087L344.032 344Z" fill="#494949"/>
<path d="M248.025 344L247.278 343.856L258.943 227.943L259.689 228.087L248.025 344Z" fill="#494949"/>
<path d="M291.458 344L290.712 343.856L302.376 227.943L303.123 228.087L291.458 344Z" fill="#494949"/>
<path d="M306.924 176.927L300.109 227.963L300.863 228.063L307.677 177.027L306.924 176.927Z" fill="#494949"/>
<path d="M385.137 176.927L378.323 227.963L379.076 228.063L385.89 177.027L385.137 176.927Z" fill="#494949"/>
<path d="M300.178 231.753H376.681C378.745 231.753 380.418 230.079 380.418 228.015V228.015C380.418 225.951 378.745 224.277 376.681 224.277H300.178C298.114 224.277 296.441 225.951 296.441 228.015V228.015C296.441 230.079 298.114 231.753 300.178 231.753Z" fill="#292A2E"/>
<path opacity="0.8" d="M300.178 231.753H376.681C378.745 231.753 380.418 230.079 380.418 228.015V228.015C380.418 225.951 378.745 224.277 376.681 224.277H300.178C298.114 224.277 296.441 225.951 296.441 228.015V228.015C296.441 230.079 298.114 231.753 300.178 231.753Z" fill="white"/>
<path d="M296.061 228.015C296.062 226.924 296.497 225.877 297.268 225.105C298.04 224.334 299.087 223.899 300.178 223.898H376.681C377.773 223.898 378.82 224.332 379.592 225.104C380.364 225.876 380.798 226.924 380.798 228.016C380.798 229.108 380.364 230.155 379.592 230.927C378.82 231.699 377.773 232.133 376.681 232.133H300.178C299.087 232.132 298.04 231.697 297.268 230.925C296.496 230.153 296.062 229.107 296.061 228.015ZM300.178 224.658C299.288 224.658 298.434 225.012 297.804 225.641C297.175 226.271 296.821 227.125 296.821 228.015C296.821 228.906 297.175 229.76 297.804 230.389C298.434 231.019 299.288 231.373 300.178 231.373H376.681C377.571 231.373 378.425 231.019 379.055 230.389C379.684 229.76 380.038 228.906 380.038 228.015C380.038 227.125 379.684 226.271 379.055 225.641C378.425 225.012 377.571 224.658 376.681 224.658H300.178Z" fill="#292A2E"/>
<path d="M258.19 231.753H334.692C336.756 231.753 338.43 230.079 338.43 228.015V228.015C338.43 225.951 336.756 224.277 334.692 224.277H258.19C256.126 224.277 254.452 225.951 254.452 228.015V228.015C254.452 230.079 256.126 231.753 258.19 231.753Z" fill="white"/>
<path d="M254.07 228.015C254.072 226.923 254.506 225.877 255.279 225.105C256.051 224.333 257.098 223.899 258.19 223.898H334.692C335.784 223.898 336.831 224.332 337.604 225.104C338.376 225.876 338.809 226.924 338.809 228.016C338.809 229.108 338.376 230.155 337.604 230.927C336.831 231.699 335.784 232.133 334.692 232.133H258.19C257.098 232.132 256.051 231.698 255.279 230.926C254.506 230.154 254.072 229.107 254.07 228.015ZM258.19 224.658C257.749 224.658 257.312 224.745 256.905 224.914C256.498 225.083 256.128 225.33 255.816 225.642C255.504 225.953 255.257 226.323 255.088 226.731C254.919 227.138 254.832 227.575 254.832 228.016C254.832 228.456 254.919 228.893 255.088 229.3C255.257 229.708 255.504 230.078 255.816 230.39C256.128 230.701 256.498 230.949 256.905 231.117C257.312 231.286 257.749 231.373 258.19 231.373H334.692C335.583 231.373 336.436 231.019 337.066 230.39C337.696 229.76 338.049 228.906 338.049 228.016C338.049 227.125 337.696 226.271 337.066 225.642C336.436 225.012 335.583 224.658 334.692 224.658H258.19Z" fill="#292A2E"/>
<path d="M311.118 176.979H385.313C386.526 176.979 387.698 176.538 388.609 175.737C389.521 174.937 390.11 173.832 390.266 172.629L395.174 134.939C395.265 134.235 395.206 133.519 394.999 132.839C394.792 132.16 394.443 131.532 393.974 130.998C393.505 130.464 392.928 130.037 392.281 129.744C391.633 129.451 390.931 129.299 390.221 129.299H316.026C314.813 129.299 313.64 129.74 312.729 130.541C311.817 131.342 311.228 132.447 311.071 133.65L306.163 171.339C306.072 172.044 306.131 172.76 306.338 173.44C306.545 174.119 306.895 174.747 307.364 175.281C307.833 175.815 308.411 176.242 309.058 176.535C309.705 176.828 310.408 176.979 311.118 176.979Z" fill="#292A2E"/>
<path opacity="0.8" d="M311.118 176.979H385.313C386.526 176.979 387.698 176.538 388.609 175.737C389.521 174.937 390.11 173.832 390.266 172.629L395.174 134.939C395.265 134.235 395.206 133.519 394.999 132.839C394.792 132.16 394.443 131.532 393.974 130.998C393.505 130.464 392.928 130.037 392.281 129.744C391.633 129.451 390.931 129.299 390.221 129.299H316.026C314.813 129.299 313.64 129.74 312.729 130.541C311.817 131.342 311.228 132.447 311.071 133.65L306.163 171.339C306.072 172.044 306.131 172.76 306.338 173.44C306.545 174.119 306.895 174.747 307.364 175.281C307.833 175.815 308.411 176.242 309.058 176.535C309.705 176.828 310.408 176.979 311.118 176.979Z" fill="white"/>
<path d="M307.081 175.531C306.577 174.957 306.2 174.281 305.978 173.55C305.755 172.819 305.69 172.048 305.789 171.29L310.697 133.601C310.868 132.308 311.503 131.121 312.483 130.26C313.463 129.399 314.722 128.923 316.027 128.92H390.221C390.986 128.92 391.742 129.083 392.438 129.398C393.135 129.714 393.756 130.174 394.26 130.748C394.765 131.323 395.141 131.998 395.363 132.73C395.586 133.461 395.65 134.231 395.551 134.99L390.644 172.678C390.473 173.971 389.838 175.158 388.858 176.019C387.878 176.88 386.619 177.356 385.314 177.359H311.118C310.354 177.359 309.599 177.196 308.903 176.88C308.206 176.565 307.585 176.105 307.081 175.531ZM316.026 129.68C314.906 129.683 313.825 130.092 312.984 130.831C312.143 131.57 311.598 132.589 311.451 133.699L306.543 171.388C306.459 172.039 306.514 172.701 306.705 173.328C306.896 173.956 307.219 174.536 307.652 175.029C308.085 175.523 308.619 175.918 309.217 176.188C309.815 176.459 310.463 176.599 311.12 176.599H385.314C386.434 176.597 387.516 176.188 388.357 175.449C389.199 174.71 389.744 173.69 389.891 172.58L394.798 134.891C394.883 134.24 394.828 133.579 394.637 132.951C394.446 132.323 394.123 131.743 393.69 131.25C393.257 130.757 392.723 130.362 392.125 130.091C391.527 129.82 390.879 129.68 390.222 129.68H316.026Z" fill="#292A2E"/>
<path d="M306.923 176.979H381.117C382.33 176.979 383.502 176.538 384.413 175.737C385.325 174.937 385.914 173.832 386.071 172.629L390.978 134.939C391.07 134.235 391.01 133.519 390.803 132.839C390.597 132.16 390.247 131.532 389.778 130.998C389.309 130.464 388.732 130.037 388.085 129.744C387.438 129.451 386.735 129.299 386.025 129.299H311.831C310.618 129.299 309.447 129.741 308.535 130.541C307.624 131.342 307.035 132.446 306.878 133.649L301.97 171.338C301.879 172.043 301.938 172.759 302.145 173.438C302.352 174.118 302.701 174.746 303.17 175.28C303.638 175.814 304.216 176.241 304.863 176.534C305.51 176.827 306.212 176.979 306.923 176.979Z" fill="white"/>
<path d="M302.884 175.531C302.379 174.957 302.003 174.281 301.781 173.55C301.558 172.819 301.493 172.048 301.592 171.29L306.5 133.601C306.671 132.308 307.306 131.12 308.286 130.26C309.267 129.399 310.526 128.923 311.831 128.92H386.026C386.79 128.92 387.546 129.083 388.242 129.398C388.939 129.714 389.56 130.174 390.065 130.748C390.569 131.323 390.945 131.998 391.168 132.73C391.39 133.461 391.454 134.231 391.356 134.99L386.448 172.678C386.277 173.971 385.642 175.158 384.662 176.019C383.682 176.88 382.423 177.356 381.118 177.359H306.923C306.158 177.359 305.403 177.196 304.706 176.881C304.01 176.565 303.388 176.105 302.884 175.531ZM311.831 129.68C310.711 129.683 309.63 130.092 308.788 130.831C307.947 131.57 307.402 132.589 307.255 133.699L302.347 171.388C302.262 172.039 302.317 172.701 302.509 173.328C302.7 173.956 303.023 174.536 303.456 175.029C303.889 175.523 304.422 175.918 305.02 176.188C305.618 176.459 306.267 176.599 306.923 176.599H381.117C382.237 176.597 383.319 176.188 384.16 175.449C385.002 174.71 385.547 173.69 385.694 172.58L390.601 134.891C390.686 134.241 390.631 133.579 390.44 132.951C390.249 132.323 389.926 131.743 389.493 131.25C389.059 130.757 388.526 130.362 387.928 130.091C387.33 129.82 386.681 129.68 386.025 129.68H311.831Z" fill="#292A2E"/>
<path d="M250.848 323.921C250.848 323.921 248.811 334.483 238.922 335.071C229.033 335.66 231.177 343.538 231.177 343.538H268.967V324.657L250.848 323.921Z" fill="white"/>
<path d="M284.754 317.253C284.754 317.253 287.588 327.629 278.975 332.522C270.362 337.416 275.763 343.538 275.763 343.538L309.671 326.855L301.337 309.916L284.754 317.253Z" fill="white"/>
<path d="M305.756 314.322L277.161 224.113H328.994C339.406 224.113 343.746 215.283 343.746 204.872C343.746 194.46 333.511 185.334 323.099 185.334H253.144C246.794 185.334 239.674 189.217 236.188 194.526C232.703 199.835 233.645 208.061 236.17 213.887L281.96 325.102" fill="#262626"/>
<path opacity="0.8" d="M305.756 314.322L277.161 224.113H328.994C339.406 224.113 343.746 215.283 343.746 204.872C343.746 194.46 333.511 185.334 323.099 185.334H253.144C246.794 185.334 239.674 189.217 236.188 194.526C232.703 199.835 233.645 208.061 236.17 213.887L281.96 325.102" fill="#0A0A0A"/>
<path d="M271.921 331.492L280.965 224.113L343.745 224.108C358.456 222.955 365.192 214.893 364.978 204.484C364.767 194.207 359.563 184.056 349.332 184.056H264.718C257.149 184.212 248.385 191.372 248.385 199.608L243.988 330.245" fill="#262626"/>
<path d="M369.262 184.182C369.262 184.182 372.05 202.364 367.63 212.472C362.113 225.092 341.43 224.109 341.43 224.109L342.596 184.056L369.262 184.182Z" fill="#262626"/>
<path d="M372.335 182.127L372.415 182.132C372.415 182.132 372.357 180.583 372.335 182.127Z" fill="#333333"/>
<path d="M372.234 182.127L372.314 182.132C372.314 182.132 372.256 180.583 372.234 182.127Z" fill="#333333"/>
<path d="M237.642 108.415C237.79 108.122 238.025 107.882 238.315 107.729C238.605 107.575 238.936 107.515 239.261 107.558C239.258 107.529 239.265 107.5 239.279 107.475C239.294 107.455 239.314 107.44 239.337 107.431C239.36 107.421 239.385 107.418 239.409 107.422L238.311 106.634C237.983 106.409 237.747 106.073 237.648 105.688C237.548 105.303 237.591 104.895 237.768 104.539C237.955 104.193 238.264 103.929 238.635 103.798C239.006 103.666 239.412 103.678 239.776 103.829C239.773 103.813 239.783 103.798 239.785 103.782L239.334 103.459C239.026 103.246 238.801 102.933 238.696 102.573C238.592 102.213 238.615 101.828 238.762 101.483C238.859 101.269 239.002 101.078 239.181 100.926C239.361 100.773 239.571 100.663 239.799 100.602C240.026 100.54 240.264 100.531 240.495 100.572C240.727 100.614 240.946 100.707 241.137 100.844L242.179 101.591C242.182 101.585 242.179 101.577 242.183 101.572C242.187 101.566 242.198 101.564 242.205 101.558C241.965 101.288 241.825 100.946 241.806 100.587C241.787 100.227 241.89 99.8721 242.1 99.5792C242.591 98.7885 243.726 98.95 244.399 99.4326L250.529 103.667L249.434 101.818C249.214 101.463 249.136 101.038 249.217 100.628C249.298 100.218 249.532 99.8537 249.871 99.6093C250.05 99.4892 250.252 99.407 250.464 99.3676C250.676 99.3282 250.895 99.3325 251.105 99.3801C251.316 99.4278 251.514 99.5178 251.689 99.6448C251.863 99.7717 252.01 99.9329 252.12 100.118L258.103 110.189C258.805 111.37 259.018 112.779 258.698 114.115C258.378 115.452 257.549 116.61 256.388 117.346C255.041 118.198 253.471 118.629 251.878 118.584C250.285 118.538 248.742 118.017 247.446 117.089L238.189 110.454C237.882 110.225 237.661 109.9 237.561 109.53C237.462 109.16 237.49 108.767 237.642 108.415Z" fill="#E98862"/>
<g opacity="0.25">
<path d="M248.245 105.771C248.223 105.802 248.189 105.823 248.151 105.83C248.113 105.836 248.074 105.827 248.043 105.806L242.219 101.772C242.187 101.75 242.166 101.716 242.159 101.678C242.152 101.64 242.161 101.6 242.183 101.568C242.205 101.537 242.238 101.515 242.276 101.508C242.314 101.501 242.354 101.509 242.386 101.531L248.21 105.565C248.226 105.576 248.24 105.59 248.25 105.606C248.261 105.622 248.268 105.64 248.272 105.659C248.275 105.678 248.275 105.698 248.271 105.717C248.267 105.735 248.259 105.753 248.248 105.769L248.245 105.771Z" fill="#0C0C0C"/>
</g>
<g opacity="0.25">
<path d="M246.537 108.389C246.514 108.42 246.481 108.441 246.443 108.448C246.405 108.454 246.366 108.445 246.335 108.423L239.837 103.922C239.805 103.899 239.783 103.866 239.776 103.827C239.768 103.789 239.777 103.75 239.799 103.717C239.822 103.686 239.855 103.665 239.893 103.658C239.931 103.651 239.97 103.659 240.003 103.679L246.503 108.181C246.519 108.192 246.532 108.206 246.543 108.222C246.553 108.239 246.561 108.257 246.564 108.276C246.568 108.295 246.567 108.314 246.563 108.333C246.559 108.352 246.552 108.37 246.541 108.385L246.537 108.389Z" fill="#0C0C0C"/>
</g>
<g opacity="0.25">
<path d="M244.703 111.235C244.681 111.266 244.647 111.287 244.609 111.293C244.571 111.3 244.532 111.291 244.501 111.269L239.316 107.678C239.285 107.656 239.265 107.622 239.258 107.584C239.252 107.546 239.261 107.508 239.282 107.476C239.304 107.445 239.337 107.423 239.375 107.416C239.412 107.409 239.451 107.416 239.483 107.437L244.668 111.028C244.684 111.039 244.698 111.053 244.708 111.069C244.719 111.086 244.726 111.104 244.729 111.123C244.733 111.141 244.733 111.161 244.729 111.18C244.725 111.199 244.717 111.217 244.706 111.232L244.703 111.235Z" fill="#0C0C0C"/>
</g>
<path d="M261.633 107.896L279.201 137.817L300.638 109.7L318.441 125.75L288.036 165.124L287.837 165.404C286.62 167.071 284.999 168.401 283.126 169.268C281.254 170.135 279.191 170.51 277.133 170.36C275.074 170.209 273.088 169.537 271.362 168.407C269.635 167.276 268.225 165.725 267.264 163.899L242.281 118.657L261.633 107.896Z" fill="white"/>
<path d="M280.922 141.415C280.96 141.415 280.998 141.405 281.031 141.387C281.064 141.368 281.092 141.341 281.112 141.308C281.132 141.276 281.144 141.239 281.145 141.201C281.146 141.162 281.138 141.125 281.121 141.09L279.399 137.716C279.371 137.665 279.324 137.627 279.268 137.61C279.213 137.593 279.153 137.599 279.102 137.625C279.05 137.651 279.011 137.697 278.992 137.751C278.973 137.806 278.976 137.866 279.001 137.919L280.723 141.293C280.742 141.33 280.77 141.361 280.805 141.382C280.841 141.404 280.881 141.415 280.922 141.415Z" fill="#0C0C0C"/>
<path d="M301.873 137.647L301.427 137.673L301.963 147.123L302.409 147.098L301.873 137.647Z" fill="#0C0C0C"/>
<path d="M358.483 69.2519C358.483 69.2519 359.306 79.7712 361.719 83.5633C368.665 94.4796 370.783 106.827 364.03 113.368C357.276 119.909 313.726 120.503 310.254 105.679C307.332 93.1971 313.277 91.7827 314.608 81.4425C315.211 76.7642 316.902 66.9487 316.902 66.9487" fill="#0A0A0A"/>
<path d="M321.341 103.307C321.417 103.298 322.251 117.14 338.333 115.934C349.467 115.1 353.436 103.288 353.691 103.288C352.491 103.033 350.469 102.662 349.936 102.376C348.183 101.434 346.014 100.454 345.449 97.0492C345.123 95.0869 345.677 85.0483 345.505 83.0628L328.416 86.8773C328.655 91.0702 330.326 100.791 324.468 102.511C323.493 102.797 322.443 103.059 321.341 103.307Z" fill="#E98862"/>
<path opacity="0.52" d="M328.176 98.5399C328.444 97.6772 328.616 96.7878 328.69 95.8875C328.878 93.8333 328.841 91.7646 328.579 89.7185C332.052 89.2498 335.325 87.816 338.024 85.5803C338.341 86.7522 340.087 91.8732 339.603 92.9869C338.69 95.0925 334.398 98.5399 328.176 98.5399Z" fill="#0C0C0C"/>
<path d="M330.441 94.1832C337.186 94.757 345.872 91.961 347.574 82.9682L349.11 74.8536C350.812 65.8604 347.468 57.6774 339.002 56.0738C330.535 54.4713 322.826 60.5639 321.124 69.5571L320.444 73.1492C319.79 76.6001 318.407 93.1591 330.441 94.1832Z" fill="#E98862"/>
<path d="M322.856 73.541C323.442 73.541 323.918 73.0658 323.918 72.4797C323.918 71.8935 323.442 71.4183 322.856 71.4183C322.27 71.4183 321.795 71.8935 321.795 72.4797C321.795 73.0658 322.27 73.541 322.856 73.541Z" fill="#0C0C0C"/>
<path d="M333.73 74.9934C334.317 74.9934 334.792 74.5182 334.792 73.932C334.792 73.3459 334.317 72.8707 333.73 72.8707C333.144 72.8707 332.669 73.3459 332.669 73.932C332.669 74.5182 333.144 74.9934 333.73 74.9934Z" fill="#0C0C0C"/>
<path d="M327.763 81.7138C327.757 81.7134 327.752 81.7126 327.746 81.7115C327.403 81.6438 327.065 81.5574 326.731 81.4527C326.233 81.2927 325.581 81.0275 325.667 80.5787C325.764 80.0665 328.213 74.8026 328.493 74.2049C328.517 74.1526 328.561 74.1121 328.615 74.0923C328.67 74.0726 328.729 74.0751 328.782 74.0995C328.834 74.1238 328.875 74.1679 328.894 74.2221C328.914 74.2763 328.912 74.3361 328.887 74.3884C327.842 76.6305 326.16 80.3165 326.095 80.6585C326.15 80.8185 326.977 81.1221 327.828 81.2836C327.884 81.2935 327.933 81.3248 327.967 81.3708C328 81.4167 328.013 81.4738 328.005 81.5297C327.997 81.5857 327.967 81.6362 327.922 81.6705C327.877 81.7048 327.82 81.7202 327.764 81.7134L327.763 81.7138Z" fill="#0C0C0C"/>
<path d="M329.017 85.5966C327.636 85.4172 326.316 84.9158 325.164 84.1329C325.116 84.1014 325.082 84.052 325.07 83.9955C325.058 83.9391 325.069 83.8802 325.1 83.8319C325.132 83.7836 325.181 83.7497 325.238 83.7378C325.294 83.7259 325.353 83.7369 325.401 83.7684C327.894 85.3926 330.371 85.6552 332.564 84.5284C332.608 84.5041 332.654 84.4824 332.701 84.4635C332.755 84.4439 332.815 84.4466 332.867 84.4711C332.919 84.4956 332.959 84.5398 332.979 84.594C332.999 84.6482 332.996 84.708 332.971 84.7602C332.947 84.8124 332.903 84.8527 332.848 84.8723C332.831 84.8796 332.802 84.8948 332.763 84.9153C331.61 85.51 330.305 85.7472 329.017 85.5966Z" fill="#0C0C0C"/>
<path d="M355.884 77.6815L348.293 76.29C342.545 73.9636 340.807 64.012 340.807 64.012C340.807 64.012 333.825 70.8179 316.905 66.9472C316.905 66.9472 320.298 43.349 345.297 50.2103C353.358 52.4231 359.143 60.5464 358.422 71.4024C357.915 79.0104 355.884 77.6815 355.884 77.6815Z" fill="#0A0A0A"/>
<path d="M346.53 85.6084C349.103 86.0952 351.71 83.7373 352.197 81.1624C352.684 78.5875 350.867 76.7752 348.293 76.2885L346.641 77.7617L344.318 85.1881L346.53 85.6084Z" fill="#E98862"/>
<path d="M326.941 69.9032C326.191 69.4185 325.323 69.1447 324.431 69.1105C323.991 69.091 323.551 69.1375 323.126 69.2485C322.704 69.3568 322.298 69.5178 321.916 69.7277C321.867 69.757 321.831 69.8034 321.815 69.858C321.799 69.9125 321.803 69.9711 321.828 70.0223C321.853 70.0736 321.896 70.1137 321.949 70.1348C322.002 70.1559 322.06 70.1566 322.114 70.1366L322.13 70.1293C322.482 69.9568 322.855 69.8291 323.24 69.7493C323.62 69.668 324.01 69.6446 324.397 69.6802C325.165 69.7442 325.902 70.0105 326.533 70.452L326.554 70.4668C326.59 70.4968 326.631 70.5191 326.676 70.5323C326.721 70.5455 326.769 70.5493 326.815 70.5435C326.862 70.5377 326.906 70.5224 326.947 70.4986C326.987 70.4747 327.022 70.4428 327.05 70.4049C327.077 70.3669 327.097 70.3237 327.107 70.278C327.117 70.2322 327.117 70.1849 327.108 70.1388C327.099 70.0928 327.081 70.0492 327.055 70.0105C327.028 69.9719 326.994 69.9391 326.954 69.9143L326.941 69.9032Z" fill="#0C0C0C"/>
<path d="M333.711 71.497C334.459 71.314 335.242 71.332 335.982 71.549C336.355 71.656 336.711 71.8188 337.036 72.032C337.365 72.2457 337.666 72.5 337.932 72.789L337.945 72.8012C337.987 72.8391 338.042 72.8597 338.099 72.8591C338.156 72.8585 338.21 72.8367 338.252 72.7979C338.294 72.7591 338.319 72.7062 338.324 72.6495C338.328 72.5928 338.312 72.5364 338.277 72.4915C337.997 72.1581 337.676 71.8613 337.322 71.6079C336.965 71.3506 336.572 71.1482 336.155 71.0075C335.31 70.7168 334.403 70.659 333.527 70.84C333.444 70.8638 333.373 70.9184 333.328 70.9928C333.283 71.0672 333.269 71.1558 333.287 71.2406C333.305 71.3255 333.355 71.4002 333.426 71.4497C333.497 71.4992 333.585 71.5198 333.671 71.5072L333.685 71.5038L333.711 71.497Z" fill="#0C0C0C"/>
<path d="M328.723 87.6384C328.473 87.6098 328.225 87.5601 327.984 87.4898C327.928 87.4738 327.881 87.4365 327.853 87.386C327.826 87.3355 327.819 87.276 327.835 87.2206C327.851 87.1651 327.888 87.1183 327.939 87.0904C327.989 87.0625 328.049 87.0558 328.104 87.0718C329.559 87.4898 330.387 86.9358 330.422 86.9118C330.469 86.8787 330.528 86.8656 330.585 86.8756C330.641 86.8855 330.692 86.9176 330.725 86.9648C330.758 87.0121 330.771 87.0705 330.761 87.1273C330.751 87.1842 330.719 87.2347 330.672 87.2679C330.085 87.6128 329.396 87.7437 328.723 87.6384Z" fill="#0C0C0C"/>
<path d="M348.277 76.1938L348.353 75.9837C338.736 72.5313 341.088 63.0936 341.112 62.9986L340.896 62.9419C340.871 63.0388 338.465 72.6712 348.277 76.1938Z" fill="#0C0C0C"/>
<path opacity="0.1" d="M336.756 81.1171C336.843 80.3027 336.014 79.5456 334.904 79.4261C333.793 79.3067 332.822 79.8701 332.735 80.6845C332.647 81.4989 333.476 82.256 334.586 82.3754C335.697 82.4949 336.668 81.9315 336.756 81.1171Z" fill="#0C0C0C"/>
<path opacity="0.1" d="M322.835 79.2605C322.744 80.0737 321.774 80.6364 320.664 80.5183C320.472 80.4978 320.282 80.4573 320.099 80.3974C320.036 79.4296 320.023 78.4974 320.041 77.6356C320.348 77.555 320.667 77.5326 320.982 77.5694C322.091 77.6872 322.921 78.4442 322.835 79.2605Z" fill="#0C0C0C"/>
<path d="M301.361 133.784C301.867 139.735 304.331 176.725 304.819 184.056L369.262 184.193C369.642 177.581 374.022 148.673 375.46 135.745C376.832 123.409 379.526 117.232 377.55 113.585C374.324 107.624 365.51 104.18 359.5 103.366C355.83 102.869 350.31 102.513 350.31 102.513C350.31 102.513 349.843 111.967 338.699 112.493C323.529 113.209 324.542 102.513 324.467 102.513C322.009 102.513 307.97 104.068 304.535 106.104C295.177 111.645 300.285 121.173 301.361 133.784Z" fill="white"/>
<path d="M259.531 137.941L265.742 168.134C265.869 168.747 266.201 169.298 266.685 169.696C267.168 170.093 267.773 170.313 268.399 170.318L311.173 170.683C311.581 170.686 311.984 170.598 312.354 170.426C312.724 170.253 313.05 170 313.309 169.684C313.569 169.369 313.754 169 313.852 168.604C313.95 168.208 313.958 167.795 313.876 167.395L307.664 137.203C307.538 136.59 307.205 136.038 306.722 135.641C306.238 135.243 305.633 135.024 305.007 135.018L262.234 134.654C261.826 134.65 261.422 134.738 261.052 134.911C260.683 135.084 260.356 135.337 260.097 135.652C259.838 135.967 259.653 136.336 259.555 136.733C259.456 137.129 259.448 137.542 259.531 137.941Z" fill="#292A2E"/>
<path d="M299.416 159.388C299.393 159.785 299.515 160.178 299.759 160.492C300.002 160.807 300.351 161.024 300.742 161.101L302.059 161.392C302.035 161.4 302.014 161.413 301.997 161.431C301.979 161.449 301.967 161.471 301.96 161.494C301.957 161.522 301.963 161.551 301.978 161.575C301.661 161.664 301.38 161.849 301.174 162.105C300.968 162.361 300.846 162.675 300.827 163.003C300.825 163.386 300.952 163.758 301.188 164.059C301.423 164.36 301.754 164.573 302.125 164.664L313.244 167.134C313.813 167.261 314.394 167.324 314.976 167.324C316.274 167.324 317.552 167.008 318.701 166.404C319.85 165.799 320.834 164.925 321.569 163.855C322.349 162.724 322.656 161.333 322.426 159.978C322.196 158.624 321.447 157.412 320.337 156.602L310.879 149.686C310.671 149.533 310.429 149.434 310.174 149.395L311.044 153.623L310.812 153.569L310.763 153.56L303.509 152.085C302.701 151.907 301.594 152.199 301.451 153.121C301.375 153.473 301.419 153.84 301.578 154.164C301.737 154.487 302 154.747 302.325 154.902C302.321 154.906 302.312 154.91 302.312 154.92C302.312 154.929 302.316 154.933 302.316 154.942L301.062 154.665C300.833 154.614 300.595 154.615 300.366 154.667C300.137 154.719 299.923 154.822 299.738 154.967C299.553 155.112 299.403 155.296 299.298 155.506C299.193 155.716 299.135 155.947 299.13 156.182C299.13 156.557 299.26 156.92 299.498 157.211C299.735 157.501 300.066 157.7 300.434 157.775L300.974 157.895C300.978 157.913 300.974 157.931 300.983 157.945C300.589 157.948 300.21 158.097 299.921 158.364C299.631 158.63 299.451 158.996 299.416 159.388Z" fill="#E98862"/>
<g opacity="0.25">
<path d="M309.538 156.407C309.53 156.444 309.507 156.477 309.475 156.497C309.443 156.518 309.404 156.526 309.366 156.518L302.426 155.094C302.406 155.091 302.388 155.084 302.371 155.073C302.355 155.062 302.341 155.049 302.33 155.032C302.319 155.016 302.311 154.998 302.307 154.979C302.304 154.959 302.304 154.94 302.308 154.921C302.311 154.901 302.319 154.883 302.33 154.867C302.341 154.851 302.356 154.837 302.372 154.826C302.389 154.816 302.407 154.809 302.426 154.805C302.446 154.802 302.465 154.803 302.485 154.807L309.425 156.231C309.444 156.234 309.462 156.242 309.478 156.253C309.494 156.264 309.507 156.277 309.518 156.293C309.528 156.309 309.536 156.327 309.539 156.346C309.543 156.365 309.543 156.385 309.539 156.404L309.538 156.407Z" fill="#0C0C0C"/>
</g>
<g opacity="0.25">
<path d="M308.995 159.485C308.986 159.523 308.964 159.555 308.931 159.576C308.899 159.596 308.86 159.604 308.823 159.596L301.077 158.008C301.058 158.004 301.04 157.996 301.024 157.985C301.008 157.975 300.995 157.961 300.984 157.945C300.974 157.929 300.966 157.911 300.963 157.892C300.959 157.873 300.959 157.853 300.963 157.835C300.972 157.797 300.995 157.765 301.027 157.743C301.059 157.722 301.098 157.714 301.136 157.721L308.882 159.309C308.92 159.317 308.953 159.34 308.974 159.372C308.996 159.405 309.003 159.444 308.996 159.482L308.995 159.485Z" fill="#0C0C0C"/>
</g>
<g opacity="0.25">
<path d="M308.426 162.823C308.417 162.86 308.394 162.892 308.362 162.913C308.33 162.934 308.291 162.941 308.253 162.934L302.075 161.667C302.037 161.658 302.004 161.635 301.983 161.603C301.962 161.571 301.955 161.531 301.963 161.494C301.971 161.456 301.993 161.423 302.025 161.401C302.057 161.38 302.096 161.372 302.134 161.379L308.312 162.646C308.35 162.654 308.384 162.677 308.405 162.709C308.426 162.742 308.434 162.781 308.426 162.819L308.426 162.823Z" fill="#0C0C0C"/>
</g>
<path d="M313.933 171.531L374.257 182.433C376.14 182.638 378.044 182.404 379.821 181.749C381.598 181.094 383.199 180.037 384.498 178.66C385.797 177.282 386.76 175.622 387.31 173.811C387.86 171.999 387.983 170.084 387.669 168.217L379.224 118.018C378.961 116.427 378.387 114.904 377.534 113.535C376.682 112.167 375.567 110.98 374.255 110.043C372.943 109.106 371.459 108.436 369.888 108.074C368.317 107.711 366.689 107.662 365.099 107.93C363.509 108.197 361.988 108.776 360.622 109.633C359.256 110.489 358.072 111.607 357.139 112.922C356.205 114.237 355.541 115.723 355.183 117.295C354.825 118.868 354.781 120.495 355.053 122.084L360.814 156.641L316.585 151.087L313.933 171.531Z" fill="white"/>
<path d="M374.258 182.656C374.313 182.656 374.366 182.634 374.407 182.597C374.448 182.559 374.473 182.507 374.477 182.452C374.482 182.397 374.466 182.342 374.433 182.298C374.399 182.254 374.35 182.224 374.296 182.213L314.179 171.35L316.776 151.336L360.78 156.863C360.815 156.868 360.85 156.864 360.883 156.852C360.916 156.841 360.946 156.822 360.97 156.796C360.994 156.771 361.012 156.741 361.022 156.708C361.032 156.675 361.035 156.64 361.029 156.606L357.371 134.521C357.367 134.492 357.356 134.464 357.341 134.439C357.326 134.414 357.305 134.393 357.282 134.376C357.258 134.358 357.231 134.346 357.202 134.34C357.173 134.333 357.144 134.333 357.115 134.338C357.056 134.348 357.004 134.38 356.97 134.428C356.935 134.476 356.921 134.536 356.931 134.595L360.541 156.384L316.613 150.868C316.554 150.861 316.495 150.877 316.449 150.913C316.402 150.949 316.371 151.002 316.363 151.06L313.711 171.504C313.704 171.561 313.719 171.619 313.753 171.665C313.786 171.711 313.837 171.743 313.893 171.753L374.218 182.653C374.231 182.655 374.244 182.656 374.258 182.656Z" fill="#0C0C0C"/>
<path d="M360.849 156.423L360.778 156.864L364.658 157.485L364.729 157.044L360.849 156.423Z" fill="#0C0C0C"/>
<path d="M414.631 343.775H0.266003C0.195454 343.775 0.127796 343.747 0.0779104 343.697C0.0280252 343.647 0 343.58 0 343.509C0 343.438 0.0280252 343.371 0.0779104 343.321C0.127796 343.271 0.195454 343.243 0.266003 343.243H414.63C414.7 343.243 414.768 343.271 414.818 343.321C414.868 343.371 414.896 343.438 414.896 343.509C414.896 343.58 414.868 343.647 414.818 343.697C414.768 343.747 414.7 343.775 414.63 343.775H414.631Z" fill="#292A2E"/>
<g opacity="0.65">
<path d="M414.631 343.775H0.266003C0.195454 343.775 0.127796 343.747 0.0779104 343.697C0.0280252 343.647 0 343.58 0 343.509C0 343.438 0.0280252 343.371 0.0779104 343.321C0.127796 343.271 0.195454 343.243 0.266003 343.243H414.63C414.7 343.243 414.768 343.271 414.818 343.321C414.868 343.371 414.896 343.438 414.896 343.509C414.896 343.58 414.868 343.647 414.818 343.697C414.768 343.747 414.7 343.775 414.63 343.775H414.631Z" fill="#292A2E"/>
</g>
<path d="M25.7472 344L25.0009 343.856L36.6655 227.943L37.4118 228.087L25.7472 344Z" fill="#494949"/>
<path d="M69.1809 344L68.4345 343.856L80.0988 227.943L80.8451 228.087L69.1809 344Z" fill="#494949"/>
<path d="M165.188 344L165.934 343.856L154.27 227.943L153.523 228.087L165.188 344Z" fill="#494949"/>
<path d="M121.754 344L122.501 343.856L110.836 227.943L110.09 228.087L121.754 344Z" fill="#494949"/>
<path d="M106.285 176.93L105.532 177.031L112.346 228.067L113.099 227.966L106.285 176.93Z" fill="#494949"/>
<path d="M28.0711 176.929L27.3178 177.03L34.132 228.066L34.8853 227.966L28.0711 176.929Z" fill="#494949"/>
<path d="M113.034 224.278H36.5321C34.468 224.278 32.7947 225.951 32.7947 228.015V228.016C32.7947 230.08 34.468 231.753 36.5321 231.753H113.034C115.099 231.753 116.772 230.08 116.772 228.016V228.015C116.772 225.951 115.099 224.278 113.034 224.278Z" fill="#292A2E"/>
<path opacity="0.8" d="M113.034 224.278H36.5321C34.468 224.278 32.7947 225.951 32.7947 228.015V228.016C32.7947 230.08 34.468 231.753 36.5321 231.753H113.034C115.099 231.753 116.772 230.08 116.772 228.016V228.015C116.772 225.951 115.099 224.278 113.034 224.278Z" fill="white"/>
<path d="M113.034 232.133H36.5321C35.9914 232.133 35.456 232.026 34.9564 231.819C34.4569 231.612 34.003 231.309 33.6207 230.927C33.2383 230.544 32.9351 230.09 32.7281 229.591C32.5212 229.091 32.4147 228.556 32.4147 228.015C32.4147 227.475 32.5212 226.939 32.7281 226.44C32.9351 225.94 33.2383 225.486 33.6207 225.104C34.003 224.721 34.4569 224.418 34.9564 224.211C35.456 224.004 35.9914 223.898 36.5321 223.898H113.034C114.126 223.898 115.174 224.332 115.946 225.104C116.718 225.876 117.152 226.923 117.152 228.015C117.152 229.107 116.718 230.154 115.946 230.927C115.174 231.699 114.126 232.133 113.034 232.133ZM36.5321 224.658C36.0912 224.658 35.6546 224.745 35.2473 224.914C34.8399 225.083 34.4698 225.33 34.1581 225.642C33.8463 225.953 33.599 226.323 33.4303 226.731C33.2616 227.138 33.1747 227.575 33.1747 228.016C33.1747 228.456 33.2616 228.893 33.4303 229.3C33.599 229.708 33.8463 230.078 34.1581 230.39C34.4698 230.701 34.8399 230.949 35.2473 231.117C35.6546 231.286 36.0912 231.373 36.5321 231.373H113.034C113.925 231.373 114.779 231.019 115.408 230.39C116.038 229.76 116.392 228.906 116.392 228.016C116.392 227.125 116.038 226.271 115.408 225.642C114.779 225.012 113.925 224.658 113.034 224.658H36.5321Z" fill="#292A2E"/>
<path d="M155.023 224.278H78.5206C76.4565 224.278 74.7833 225.951 74.7833 228.015V228.016C74.7833 230.08 76.4565 231.753 78.5206 231.753H155.023C157.087 231.753 158.76 230.08 158.76 228.016V228.015C158.76 225.951 157.087 224.278 155.023 224.278Z" fill="white"/>
<path d="M155.023 232.133H78.5206C77.9799 232.133 77.4445 232.026 76.945 231.819C76.4454 231.612 75.9916 231.309 75.6092 230.927C75.2269 230.544 74.9236 230.09 74.7167 229.591C74.5098 229.091 74.4033 228.556 74.4033 228.015C74.4033 227.475 74.5098 226.939 74.7167 226.44C74.9236 225.94 75.2269 225.486 75.6092 225.104C75.9916 224.721 76.4454 224.418 76.945 224.211C77.4445 224.004 77.9799 223.898 78.5206 223.898H155.023C155.564 223.898 156.099 224.004 156.599 224.211C157.098 224.418 157.552 224.721 157.934 225.104C158.317 225.486 158.62 225.94 158.827 226.44C159.034 226.939 159.14 227.475 159.14 228.015C159.14 228.556 159.034 229.091 158.827 229.591C158.62 230.09 158.317 230.544 157.934 230.927C157.552 231.309 157.098 231.612 156.599 231.819C156.099 232.026 155.564 232.133 155.023 232.133ZM78.5206 224.658C78.0797 224.658 77.6432 224.745 77.2358 224.914C76.8285 225.083 76.4584 225.33 76.1466 225.642C75.8349 225.953 75.5876 226.323 75.4189 226.731C75.2501 227.138 75.1633 227.575 75.1633 228.016C75.1633 228.456 75.2501 228.893 75.4189 229.3C75.5876 229.708 75.8349 230.078 76.1466 230.39C76.4584 230.701 76.8285 230.949 77.2358 231.117C77.6432 231.286 78.0797 231.373 78.5206 231.373H155.023C155.464 231.373 155.9 231.286 156.308 231.117C156.715 230.949 157.085 230.701 157.397 230.39C157.709 230.078 157.956 229.708 158.125 229.3C158.293 228.893 158.38 228.456 158.38 228.016C158.38 227.575 158.293 227.138 158.125 226.731C157.956 226.323 157.709 225.953 157.397 225.642C157.085 225.33 156.715 225.083 156.308 224.914C155.9 224.745 155.464 224.658 155.023 224.658H78.5206Z" fill="#292A2E"/>
<path d="M102.095 176.979H27.8999C26.6869 176.979 25.5153 176.538 24.6038 175.737C23.6923 174.937 23.1033 173.832 22.9466 172.629L18.0388 134.939C17.9471 134.235 18.0067 133.519 18.2137 132.839C18.4207 132.16 18.7702 131.532 19.239 130.998C19.7078 130.464 20.2851 130.037 20.9323 129.744C21.5795 129.451 22.2818 129.299 22.9922 129.299H97.1868C98.3998 129.299 99.5714 129.741 100.483 130.541C101.394 131.342 101.983 132.446 102.14 133.649L107.048 171.338C107.139 172.043 107.08 172.759 106.873 173.438C106.666 174.118 106.317 174.746 105.848 175.28C105.379 175.814 104.802 176.242 104.155 176.535C103.507 176.828 102.805 176.979 102.095 176.979Z" fill="#292A2E"/>
<path opacity="0.8" d="M102.095 176.979H27.8999C26.6869 176.979 25.5153 176.538 24.6038 175.737C23.6923 174.937 23.1033 173.832 22.9466 172.629L18.0388 134.939C17.9471 134.235 18.0067 133.519 18.2137 132.839C18.4207 132.16 18.7702 131.532 19.239 130.998C19.7078 130.464 20.2851 130.037 20.9323 129.744C21.5795 129.451 22.2818 129.299 22.9922 129.299H97.1868C98.3998 129.299 99.5714 129.741 100.483 130.541C101.394 131.342 101.983 132.446 102.14 133.649L107.048 171.338C107.139 172.043 107.08 172.759 106.873 173.438C106.666 174.118 106.317 174.746 105.848 175.28C105.379 175.814 104.802 176.242 104.155 176.535C103.507 176.828 102.805 176.979 102.095 176.979Z" fill="white"/>
<path d="M102.095 177.359H27.8999C26.5953 177.356 25.3361 176.88 24.3559 176.019C23.3757 175.158 22.741 173.971 22.5696 172.678L17.6622 134.99C17.5634 134.231 17.6275 133.461 17.8501 132.73C18.0728 131.998 18.4489 131.323 18.9533 130.748C19.4578 130.174 20.079 129.714 20.7755 129.398C21.4719 129.083 22.2277 128.92 22.9922 128.92H97.1868C98.4913 128.923 99.7506 129.399 100.731 130.26C101.711 131.121 102.346 132.308 102.517 133.601L107.424 171.29C107.523 172.048 107.459 172.819 107.236 173.55C107.014 174.281 106.638 174.957 106.133 175.531C105.629 176.105 105.008 176.566 104.311 176.881C103.615 177.196 102.859 177.359 102.095 177.359ZM22.9922 129.68C22.3358 129.68 21.687 129.82 21.089 130.091C20.4911 130.362 19.9577 130.757 19.5246 131.25C19.0915 131.743 18.7685 132.323 18.5773 132.951C18.3861 133.579 18.331 134.24 18.4158 134.891L23.3235 172.58C23.4705 173.69 24.0154 174.71 24.857 175.449C25.6986 176.188 26.7798 176.597 27.8999 176.599H102.095C102.751 176.599 103.4 176.459 103.998 176.188C104.596 175.918 105.129 175.523 105.562 175.029C105.995 174.536 106.318 173.956 106.509 173.328C106.701 172.701 106.756 172.039 106.671 171.388L101.765 133.699C101.618 132.589 101.073 131.57 100.231 130.831C99.3899 130.091 98.3088 129.683 97.1887 129.68H22.9922Z" fill="#292A2E"/>
<path d="M106.29 176.979H32.0952C30.8821 176.979 29.7106 176.538 28.7992 175.737C27.8878 174.937 27.2988 173.832 27.1422 172.629L22.2345 134.939C22.1427 134.235 22.2024 133.519 22.4093 132.839C22.6163 132.16 22.9658 131.532 23.4346 130.998C23.9034 130.464 24.4807 130.037 25.1279 129.744C25.7751 129.451 26.4774 129.299 27.1878 129.299H101.382C102.595 129.299 103.767 129.741 104.678 130.541C105.59 131.342 106.179 132.446 106.335 133.649L111.243 171.338C111.335 172.043 111.276 172.759 111.069 173.438C110.862 174.118 110.512 174.746 110.043 175.28C109.575 175.814 108.997 176.242 108.35 176.535C107.703 176.828 107 176.979 106.29 176.979Z" fill="white"/>
<path d="M106.29 177.359H32.0952C30.7906 177.356 29.5314 176.88 28.5513 176.019C27.5711 175.158 26.9365 173.971 26.7652 172.678L21.8575 134.99C21.7588 134.231 21.8229 133.461 22.0457 132.73C22.2684 131.998 22.6445 131.323 23.149 130.748C23.6535 130.174 24.2747 129.714 24.9711 129.399C25.6676 129.083 26.4233 128.92 27.1878 128.92H101.382C102.687 128.923 103.946 129.399 104.926 130.26C105.906 131.121 106.541 132.308 106.712 133.601L111.62 171.29C111.719 172.048 111.655 172.819 111.432 173.55C111.209 174.281 110.833 174.957 110.328 175.531C109.824 176.105 109.203 176.566 108.506 176.881C107.81 177.196 107.054 177.359 106.29 177.359ZM27.1878 129.68C26.5313 129.68 25.8823 129.82 25.2842 130.091C24.6861 130.361 24.1527 130.756 23.7194 131.25C23.2862 131.743 22.9631 132.323 22.7719 132.951C22.5806 133.579 22.5255 134.24 22.6103 134.891L27.5176 172.58C27.6648 173.69 28.2099 174.71 29.0517 175.449C29.8935 176.188 30.9749 176.597 32.0952 176.599H106.29C106.946 176.599 107.595 176.459 108.193 176.188C108.791 175.918 109.324 175.523 109.757 175.029C110.19 174.536 110.513 173.956 110.705 173.328C110.896 172.701 110.951 172.039 110.866 171.388L105.958 133.699C105.811 132.589 105.267 131.57 104.425 130.83C103.583 130.091 102.502 129.683 101.382 129.68H27.1878Z" fill="#292A2E"/>
<path d="M98.1117 71.1519C98.1117 71.1519 103.042 67.4305 104.264 58.8645C105.21 52.2319 99.0917 56.529 99.0917 56.529C99.0917 56.529 99.7263 51.7466 96.2417 52.2213C92.757 52.6959 90.8076 57.7195 90.8076 57.7195" fill="#0C0C0C"/>
<path d="M78.2333 52.7825C78.2333 52.7825 60.9454 54.6362 67.1949 78.0627L68.7244 78.1649L71.8298 78.3731" fill="#0C0C0C"/>
<path d="M95.216 102.525C95.14 102.515 94.2968 116.509 78.038 115.29C66.7823 114.447 62.7687 102.505 62.511 102.505C63.7244 102.247 65.2242 101.856 65.8201 101.721C67.1191 101.42 68.2956 100.73 69.193 99.7436C70.0904 98.7571 70.6662 97.5208 70.8437 96.1991C71.1728 94.2155 70.6157 84.0663 70.7864 82.0595L88.064 85.9189C87.8223 90.1578 86.1328 99.9851 92.054 101.724C93.0405 102.01 94.1019 102.275 95.216 102.525Z" fill="#E98862"/>
<path opacity="0.52" d="M88.3061 97.7062C88.0355 96.8341 87.8613 95.935 87.7866 95.0249C87.597 92.948 87.6352 90.8565 87.9006 88.7879C84.389 88.3139 81.0806 86.8645 78.3515 84.6044C78.0304 85.7893 76.266 90.9661 76.7555 92.0924C77.677 94.2208 82.0163 97.7062 88.3061 97.7062Z" fill="#0C0C0C"/>
<path d="M84.7409 94.9363C77.9247 94.3253 69.7664 90.0183 69.6486 80.766L69.5407 72.4173C69.4229 63.1646 74.1874 55.6022 82.899 55.4916C91.6106 55.3806 98.2177 62.7987 98.3355 72.051L98.3822 75.7473C98.3764 77.0165 98.2839 78.2838 98.1056 79.5405C97.6587 82.8655 96.9656 87.9207 94.7091 91.3407C92.5796 94.5693 89.0949 95.327 84.7409 94.9363Z" fill="#E98862"/>
<path d="M87.9025 86.479C89.3093 86.5427 90.7113 86.275 91.9955 85.6973C92.0221 85.686 92.0461 85.6695 92.0663 85.6489C92.0865 85.6283 92.1025 85.6039 92.1132 85.5771C92.124 85.5503 92.1294 85.5217 92.1291 85.4928C92.1288 85.464 92.1228 85.4354 92.1114 85.4089C92.1001 85.3823 92.0837 85.3583 92.063 85.3381C92.0424 85.3179 92.018 85.302 91.9912 85.2912C91.9645 85.2804 91.9358 85.2751 91.9069 85.2754C91.8781 85.2757 91.8496 85.2817 91.823 85.293C89.0562 86.471 86.544 86.3 84.5581 84.7937C84.5181 84.7619 84.4765 84.7322 84.4335 84.7047C84.3835 84.6812 84.3266 84.6774 84.2739 84.6939C84.2212 84.7104 84.1767 84.7462 84.1492 84.794C84.1216 84.8418 84.113 84.8983 84.1252 84.9521C84.1373 85.006 84.1692 85.0533 84.2146 85.0847C84.2305 85.095 84.2564 85.1151 84.2906 85.1425C85.3345 85.9379 86.5923 86.4032 87.9025 86.479Z" fill="#0C0C0C"/>
<path d="M87.8371 88.5637C88.0913 88.5792 88.3463 88.5731 88.5994 88.5454C88.6562 88.5378 88.7078 88.5083 88.7431 88.4632C88.7785 88.4181 88.7949 88.361 88.7888 88.304C88.7827 88.2471 88.7546 88.1947 88.7105 88.1581C88.6664 88.1215 88.6098 88.1036 88.5527 88.1081C87.0304 88.2699 86.3035 87.5723 86.2727 87.5426C86.2311 87.5032 86.1758 87.4815 86.1186 87.4823C86.0613 87.483 86.0065 87.506 85.966 87.5464C85.9254 87.5868 85.9022 87.6415 85.9013 87.6987C85.9004 87.756 85.9218 87.8114 85.9611 87.8531C86.4856 88.2995 87.1485 88.5505 87.8371 88.5637Z" fill="#0C0C0C"/>
<path d="M95.4596 77.5265C96.0523 77.5265 96.5328 77.046 96.5328 76.4533C96.5328 75.8607 96.0523 75.3802 95.4596 75.3802C94.867 75.3802 94.3865 75.8607 94.3865 76.4533C94.3865 77.046 94.867 77.5265 95.4596 77.5265Z" fill="#0C0C0C"/>
<path d="M84.9757 76.8683C85.5684 76.8683 86.0488 76.3879 86.0488 75.7952C86.0488 75.2025 85.5684 74.722 84.9757 74.722C84.383 74.722 83.9026 75.2025 83.9026 75.7952C83.9026 76.3879 84.383 76.8683 84.9757 76.8683Z" fill="#0C0C0C"/>
<path d="M70.2247 83.5777C67.5776 83.6115 65.3953 80.8063 65.3607 78.1592C65.3261 75.5121 67.4549 74.0244 70.1024 73.9905L71.489 75.7473L72.5002 83.5488L70.2247 83.5777Z" fill="#E98862"/>
<path d="M72.8589 79.3235C72.8589 79.3235 73.7527 66.2312 77.723 65.423C80.367 64.8845 86.7789 68.6348 92.7179 67.5024C95.316 67.0084 97.7826 67.6498 98.0334 68.8772C98.133 69.3632 99.7514 62.3791 95.6827 57.08C92.4432 52.8619 81.8422 51.6687 77.0192 53.0519C63.6644 56.8828 69.5575 74.5666 69.5575 74.5666L70.1529 79.0803L72.8589 79.3235Z" fill="#0C0C0C"/>
<path d="M89.5031 83.3896H89.5198C90.3729 83.3808 91.8033 83.2714 91.7976 82.633C91.7919 82.1044 90.2867 76.4104 90.1149 75.7629C90.1001 75.7072 90.0638 75.6596 90.014 75.6306C89.9641 75.6016 89.9048 75.5937 89.8491 75.6084C89.7934 75.6232 89.7458 75.6595 89.7168 75.7093C89.6878 75.7592 89.6799 75.8185 89.6946 75.8742C90.3634 78.3959 91.359 82.2781 91.3628 82.6383C91.2804 82.7903 90.3991 82.9465 89.516 82.9556C89.4595 82.9556 89.4052 82.9776 89.3646 83.017C89.324 83.0563 89.3004 83.11 89.2987 83.1665C89.297 83.223 89.3174 83.278 89.3556 83.3197C89.3937 83.3614 89.4467 83.3866 89.5031 83.3899V83.3896Z" fill="#0C0C0C"/>
<path d="M92.4139 70.6347C93.3106 70.3882 94.2571 70.3882 95.1538 70.6347C95.5941 70.7534 96.0143 70.9373 96.4002 71.1804C96.7815 71.4187 97.1312 71.7042 97.441 72.0301C97.4981 72.0882 97.5307 72.166 97.5319 72.2475C97.5331 72.3289 97.5028 72.4077 97.4474 72.4674C97.392 72.5271 97.3157 72.5632 97.2344 72.5681C97.1531 72.573 97.073 72.5463 97.0108 72.4937L96.9918 72.477C96.7049 72.2115 96.3857 71.9831 96.0418 71.7971C95.7044 71.6124 95.3409 71.4798 94.9638 71.4038C94.2213 71.2483 93.451 71.2913 92.7305 71.5285L92.7005 71.5391C92.6416 71.5599 92.5792 71.5689 92.5169 71.5656C92.4545 71.5623 92.3934 71.5468 92.3371 71.5199C92.2808 71.493 92.2303 71.4553 92.1885 71.4088C92.1468 71.3624 92.1146 71.3082 92.0938 71.2494C92.073 71.1905 92.064 71.1281 92.0673 71.0658C92.0706 71.0034 92.0861 70.9424 92.113 70.886C92.1399 70.8297 92.1776 70.7792 92.2241 70.7375C92.2705 70.6957 92.3247 70.6635 92.3835 70.6427C92.3938 70.6404 92.4044 70.6374 92.4139 70.6347Z" fill="#0C0C0C"/>
<path d="M86.0648 71.1747C85.3825 70.8432 84.6246 70.6978 83.868 70.7533C83.4842 70.7782 83.1064 70.8613 82.7474 70.9995C82.3822 71.1382 82.0358 71.3222 81.7165 71.5471L81.6959 71.5604C81.6274 71.6068 81.5435 71.6244 81.4621 71.6096C81.3808 71.5948 81.3084 71.5487 81.2607 71.4812C81.2129 71.4137 81.1935 71.3301 81.2066 71.2485C81.2197 71.1668 81.2643 71.0935 81.3308 71.0444C81.6812 70.7625 82.0659 70.526 82.4757 70.3406C82.8905 70.1511 83.3314 70.0248 83.7837 69.9659C84.7051 69.8408 85.6433 69.9665 86.4992 70.33C86.6151 70.3803 86.7062 70.4747 86.7525 70.5923C86.7989 70.7099 86.7966 70.8411 86.7462 70.957C86.6958 71.0729 86.6014 71.164 86.4838 71.2103C86.3663 71.2566 86.2351 71.2544 86.1192 71.204C86.1101 71.2002 86.1013 71.196 86.0926 71.1914L86.0648 71.1747Z" fill="#0C0C0C"/>
<path d="M91.1378 61.6215C93.0975 61.2121 94.1975 58.542 93.5949 55.6577C92.9923 52.7734 90.9152 50.7671 88.9556 51.1765C86.9959 51.586 85.8958 54.256 86.4984 57.1403C87.1011 60.0246 89.1782 62.0309 91.1378 61.6215Z" fill="#0C0C0C"/>
<path d="M200.432 323.921C200.432 323.921 202.47 334.483 212.359 335.071C222.248 335.66 220.103 343.537 220.103 343.537H182.314V324.657L200.432 323.921Z" fill="white"/>
<path d="M128.54 317.253C128.54 317.253 125.705 327.629 134.32 332.522C142.935 337.416 137.532 343.538 137.532 343.538L103.624 326.855L111.958 309.914L128.54 317.253Z" fill="white"/>
<path d="M107.538 314.322L136.133 224.113H84.3008C73.8887 224.113 69.5487 215.283 69.5487 204.872C69.5487 194.46 79.7841 185.334 90.1955 185.334H160.15C166.501 185.334 173.621 189.217 177.107 194.526C180.592 199.835 179.65 208.061 177.125 213.887L131.334 325.102" fill="#262626"/>
<path opacity="0.8" d="M107.538 314.322L136.133 224.113H84.3008C73.8887 224.113 69.5487 215.283 69.5487 204.872C69.5487 194.46 79.7841 185.334 90.1955 185.334H160.15C166.501 185.334 173.621 189.217 177.107 194.526C180.592 199.835 179.65 208.061 177.125 213.887L131.334 325.102" fill="#0A0A0A"/>
<path d="M180.141 333.729L132.329 224.113L69.5491 224.108C54.8384 222.955 48.1017 214.893 48.3156 204.484C48.5269 194.207 53.7307 184.056 63.9619 184.056H148.577C156.146 184.212 162.102 192.577 164.91 199.608L204.658 327.018" fill="#262626"/>
<path d="M44.033 184.182C44.033 184.182 41.2449 202.364 45.6644 212.472C51.1816 225.092 71.8645 224.109 71.8645 224.109L70.699 184.056L44.033 184.182Z" fill="#262626"/>
<path d="M166.708 183.825L122.361 174.635C120.513 174.252 118.792 173.409 117.356 172.185C115.92 170.96 114.816 169.393 114.147 167.629L96.7045 121.666C96.1817 120.288 95.9353 118.821 95.9795 117.348C96.0237 115.875 96.3576 114.425 96.9621 113.081C97.5667 111.737 98.43 110.526 99.5027 109.515C100.576 108.505 101.837 107.716 103.215 107.193C104.592 106.67 106.06 106.424 107.532 106.468C109.005 106.512 110.455 106.846 111.799 107.451C113.143 108.055 114.355 108.919 115.365 109.991C116.375 111.064 117.164 112.325 117.687 113.703L132.945 153.908L171.262 161.847C171.262 161.847 167.477 183.983 166.708 183.825Z" fill="white"/>
<path d="M115.417 133.338C114.904 139.354 111.275 176.89 110.781 184.301H44.0619C43.6784 177.617 42.4339 149.239 40.9804 136.169C39.5926 123.697 39.0895 116.579 40.6878 112.703C43.5067 105.868 50.5607 103.408 56.6366 102.585C60.3469 102.083 65.9273 101.722 65.9273 101.722C65.9273 101.722 66.3996 111.281 77.666 111.813C93.0029 112.535 91.9788 101.722 92.0544 101.722C94.5393 101.722 108.064 103.529 111.445 105.734C116.222 108.847 117.633 113.09 117.689 116.987C117.753 121.475 115.998 126.514 115.417 133.338Z" fill="white"/>
<path d="M112.794 164.01C112.788 164.01 112.783 164.01 112.778 164.01C112.727 164.005 112.681 163.982 112.648 163.943C112.616 163.905 112.6 163.855 112.604 163.805L114.336 142.998C114.337 142.973 114.344 142.948 114.355 142.926C114.366 142.903 114.382 142.883 114.401 142.867C114.421 142.851 114.443 142.839 114.467 142.831C114.491 142.824 114.516 142.822 114.541 142.824C114.591 142.829 114.638 142.853 114.67 142.891C114.703 142.929 114.719 142.979 114.714 143.029L112.983 163.836C112.979 163.884 112.957 163.928 112.922 163.96C112.887 163.992 112.841 164.01 112.794 164.01Z" fill="#0C0C0C"/>
<path d="M144.571 176.496L159.211 131.495C159.468 130.704 159.969 130.015 160.642 129.526C161.314 129.038 162.125 128.775 162.956 128.775H222.599C223.22 128.775 223.833 128.922 224.387 129.204C224.941 129.486 225.42 129.896 225.786 130.399C226.151 130.902 226.392 131.484 226.489 132.098C226.586 132.712 226.537 133.341 226.344 133.932L211.705 178.933C211.447 179.724 210.946 180.413 210.274 180.902C209.601 181.39 208.791 181.654 207.959 181.654H148.315C147.694 181.653 147.081 181.506 146.527 181.224C145.974 180.941 145.495 180.532 145.129 180.029C144.764 179.526 144.523 178.943 144.426 178.33C144.329 177.716 144.379 177.087 144.571 176.496Z" fill="#292A2E"/>
<path d="M144.571 176.496L159.211 131.495C159.468 130.704 159.969 130.015 160.642 129.526C161.314 129.038 162.125 128.775 162.956 128.775H222.599C223.22 128.775 223.833 128.922 224.387 129.204C224.941 129.486 225.42 129.896 225.786 130.399C226.151 130.902 226.392 131.484 226.489 132.098C226.586 132.712 226.537 133.341 226.344 133.932L211.705 178.933C211.447 179.724 210.946 180.413 210.274 180.902C209.601 181.39 208.791 181.654 207.959 181.654H148.315C147.694 181.653 147.081 181.506 146.527 181.224C145.974 180.941 145.495 180.532 145.129 180.029C144.764 179.526 144.523 178.943 144.426 178.33C144.329 177.716 144.379 177.087 144.571 176.496Z" fill="#292A2E"/>
<path d="M156.513 178.005H116.589C115.594 178.005 114.787 178.811 114.787 179.806V179.852C114.787 180.847 115.594 181.654 116.589 181.654H156.513C157.508 181.654 158.315 180.847 158.315 179.852V179.806C158.315 178.811 157.508 178.005 156.513 178.005Z" fill="#292A2E"/>
<path d="M156.513 178.005H116.589C115.594 178.005 114.787 178.811 114.787 179.806V179.852C114.787 180.847 115.594 181.654 116.589 181.654H156.513C157.508 181.654 158.315 180.847 158.315 179.852V179.806C158.315 178.811 157.508 178.005 156.513 178.005Z" fill="#292A2E"/>
<path d="M185.457 163.665C188.912 163.665 191.713 160.864 191.713 157.409C191.713 153.955 188.912 151.154 185.457 151.154C182.003 151.154 179.202 153.955 179.202 157.409C179.202 160.864 182.003 163.665 185.457 163.665Z" fill="white"/>
<path d="M141.234 165.954L131.27 162.462L132.7 162.363C133.161 162.322 133.59 162.107 133.899 161.763C134.208 161.418 134.374 160.969 134.364 160.506C134.351 160.267 134.289 160.034 134.183 159.82C134.077 159.606 133.928 159.416 133.745 159.261C133.563 159.106 133.351 158.991 133.122 158.921C132.894 158.851 132.653 158.828 132.416 158.854L114.787 160.727L115.243 166.392C115.386 168.152 116.05 169.829 117.152 171.208C118.253 172.588 119.742 173.607 121.426 174.135L129.06 176.513C129.454 176.644 129.882 176.635 130.27 176.487C130.659 176.339 130.984 176.062 131.191 175.702C131.372 175.373 131.442 174.995 131.393 174.623C131.343 174.251 131.176 173.905 130.915 173.635C130.932 173.623 130.946 173.607 130.957 173.59C130.968 173.572 130.975 173.552 130.977 173.532C130.98 173.511 130.979 173.49 130.973 173.471C130.968 173.451 130.958 173.432 130.945 173.416L132.352 173.857C132.79 174.004 133.269 173.98 133.69 173.788C134.112 173.596 134.444 173.251 134.621 172.823C134.766 172.435 134.769 172.009 134.63 171.619C134.491 171.229 134.219 170.9 133.861 170.691C133.878 170.682 133.892 170.67 133.905 170.656L134.483 170.838C134.877 170.969 135.305 170.96 135.693 170.812C136.082 170.664 136.407 170.387 136.614 170.027C136.833 169.627 136.889 169.159 136.77 168.719C136.651 168.279 136.366 167.903 135.976 167.669C135.979 167.657 135.981 167.645 135.981 167.633L140.131 169.088C140.546 169.233 141.002 169.208 141.399 169.017C141.796 168.826 142.101 168.486 142.246 168.07C142.392 167.655 142.366 167.198 142.176 166.802C141.985 166.405 141.644 166.1 141.229 165.954H141.234Z" fill="#E98862"/>
<path opacity="0.2" d="M135.823 167.795C135.804 167.795 135.785 167.792 135.767 167.785L131.753 166.328C131.711 166.313 131.678 166.282 131.66 166.242C131.641 166.202 131.639 166.157 131.654 166.115C131.67 166.074 131.7 166.041 131.74 166.022C131.78 166.004 131.825 166.002 131.867 166.017L135.88 167.476C135.917 167.49 135.948 167.515 135.967 167.549C135.986 167.583 135.993 167.622 135.987 167.66C135.98 167.699 135.96 167.733 135.93 167.758C135.901 167.783 135.863 167.797 135.824 167.797L135.823 167.795Z" fill="#0A0A0A"/>
<path opacity="0.2" d="M133.794 170.714C133.775 170.714 133.757 170.71 133.739 170.704L130.575 169.582C130.555 169.574 130.536 169.563 130.52 169.549C130.503 169.534 130.49 169.516 130.481 169.497C130.472 169.477 130.466 169.456 130.465 169.434C130.464 169.413 130.467 169.391 130.474 169.371C130.482 169.35 130.493 169.331 130.508 169.315C130.522 169.299 130.54 169.286 130.559 169.277C130.579 169.267 130.6 169.262 130.622 169.261C130.643 169.26 130.665 169.263 130.686 169.27L133.849 170.393C133.886 170.406 133.917 170.431 133.937 170.465C133.957 170.499 133.964 170.538 133.957 170.576C133.951 170.615 133.93 170.65 133.901 170.675C133.871 170.7 133.833 170.714 133.794 170.714Z" fill="#0A0A0A"/>
<path opacity="0.2" d="M130.815 173.675C130.795 173.675 130.775 173.671 130.756 173.664L129.274 173.099C129.253 173.092 129.233 173.08 129.216 173.065C129.2 173.051 129.186 173.033 129.177 173.012C129.167 172.992 129.162 172.97 129.161 172.948C129.16 172.926 129.164 172.904 129.172 172.883C129.18 172.862 129.192 172.843 129.207 172.827C129.223 172.811 129.241 172.798 129.262 172.789C129.282 172.781 129.304 172.776 129.327 172.776C129.349 172.776 129.371 172.781 129.392 172.79L130.874 173.355C130.91 173.369 130.94 173.395 130.959 173.429C130.977 173.462 130.984 173.501 130.977 173.539C130.97 173.577 130.95 173.612 130.92 173.636C130.891 173.661 130.853 173.675 130.815 173.675H130.815Z" fill="#0A0A0A"/>
<path d="M122.589 157.375L80.7888 157.347L64.9757 118.771L41.3859 128.689L61.116 174.472L61.3091 174.928C62.2743 177.153 63.9002 179.028 65.9665 180.299C68.0329 181.569 70.4397 182.174 72.8612 182.031L123.222 179.055L122.589 157.375Z" fill="white"/>
<path d="M72.1681 182.241C69.8247 182.237 67.5332 181.55 65.5738 180.265C63.6144 178.979 62.0718 177.151 61.1346 175.003L60.9412 174.547L44.1299 135.536L44.4787 135.386L61.4839 174.853C62.4382 177.039 64.039 178.881 66.071 180.13C68.103 181.379 70.4687 181.976 72.8502 181.841L123.027 178.877L122.405 157.565L80.6623 157.537L68.5022 127.877L68.8537 127.733L80.9165 157.157L122.774 157.186L123.417 179.235L123.233 179.246L72.8718 182.221C72.6367 182.234 72.4021 182.241 72.1681 182.241Z" fill="#0C0C0C"/>
<path d="M323.382 185.295L322.626 185.371L338.646 343.966L339.402 343.889L323.382 185.295Z" fill="#494949"/>
<path d="M25.6739 185.297L9.64291 343.89L10.3991 343.966L26.4301 185.373L25.6739 185.297Z" fill="#494949"/>
<path d="M91.9079 185.297L75.8769 343.89L76.633 343.966L92.6641 185.373L91.9079 185.297Z" fill="#494949"/>
<path d="M389.617 185.295L388.86 185.371L404.88 343.965L405.637 343.889L389.617 185.295Z" fill="#494949"/>
<path d="M404.063 182.22H12.2776C10.5579 182.22 9.16385 183.614 9.16385 185.334C9.16385 187.053 10.5579 188.447 12.2776 188.447H404.063C405.782 188.447 407.176 187.053 407.176 185.334C407.176 183.614 405.782 182.22 404.063 182.22Z" fill="#292A2E"/>
<path opacity="0.8" d="M404.063 182.22H12.2776C10.5579 182.22 9.16385 183.614 9.16385 185.334C9.16385 187.053 10.5579 188.447 12.2776 188.447H404.063C405.782 188.447 407.176 187.053 407.176 185.334C407.176 183.614 405.782 182.22 404.063 182.22Z" fill="white"/>
<path d="M404.063 188.827H12.2791C11.8172 188.832 11.359 188.745 10.9309 188.572C10.5029 188.398 10.1134 188.142 9.78512 187.817C9.45682 187.492 9.19621 187.105 9.01834 186.679C8.84048 186.253 8.7489 185.796 8.7489 185.334C8.7489 184.872 8.84048 184.415 9.01834 183.988C9.19621 183.562 9.45682 183.175 9.78512 182.85C10.1134 182.526 10.5029 182.269 10.9309 182.096C11.359 181.922 11.8172 181.835 12.2791 181.84H404.063C404.983 181.85 405.863 182.222 406.51 182.876C407.157 183.53 407.52 184.413 407.52 185.334C407.52 186.254 407.157 187.137 406.51 187.791C405.863 188.445 404.983 188.818 404.063 188.827ZM12.2791 182.6C11.9174 182.596 11.5585 182.663 11.2231 182.799C10.8877 182.934 10.5825 183.135 10.3252 183.389C10.068 183.644 9.86371 183.946 9.7243 184.28C9.5849 184.614 9.51311 184.972 9.51311 185.334C9.51311 185.695 9.5849 186.054 9.7243 186.387C9.86371 186.721 10.068 187.024 10.3252 187.278C10.5825 187.532 10.8877 187.733 11.2231 187.869C11.5585 188.004 11.9174 188.072 12.2791 188.067H404.063C404.782 188.059 405.469 187.767 405.975 187.255C406.481 186.744 406.765 186.053 406.765 185.334C406.765 184.614 406.481 183.924 405.975 183.412C405.469 182.9 404.782 182.609 404.063 182.6H12.2791Z" fill="#292A2E"/>
<path d="M404.063 182.22H81.0434C79.3238 182.22 77.9297 183.614 77.9297 185.334C77.9297 187.053 79.3238 188.447 81.0434 188.447H404.063C405.782 188.447 407.176 187.053 407.176 185.334C407.176 183.614 405.782 182.22 404.063 182.22Z" fill="white"/>
<path d="M404.063 188.827H81.0431C80.1228 188.818 79.2435 188.445 78.5962 187.791C77.9489 187.137 77.5858 186.254 77.5858 185.334C77.5858 184.413 77.9489 183.53 78.5962 182.876C79.2435 182.222 80.1228 181.85 81.0431 181.84H404.063C404.983 181.85 405.863 182.222 406.51 182.876C407.157 183.53 407.52 184.413 407.52 185.334C407.52 186.254 407.157 187.137 406.51 187.791C405.863 188.445 404.983 188.818 404.063 188.827ZM81.0431 182.6C80.3237 182.609 79.6366 182.9 79.1309 183.412C78.6252 183.924 78.3416 184.614 78.3416 185.334C78.3416 186.053 78.6252 186.744 79.1309 187.255C79.6366 187.767 80.3237 188.059 81.0431 188.067H404.063C404.782 188.059 405.469 187.767 405.975 187.255C406.481 186.744 406.765 186.053 406.765 185.334C406.765 184.614 406.481 183.924 405.975 183.412C405.469 182.9 404.782 182.609 404.063 182.6H81.0431Z" fill="#292A2E"/>
</svg>
