<svg width="584" height="406" viewBox="0 0 584 406" fill="none" xmlns="http://www.w3.org/2000/svg">
<g clip-path="url(#clip0_2_162)">
<path d="M467.642 406C403.379 406 351.284 402.047 351.284 397.17C351.284 392.293 403.379 388.339 467.642 388.339C531.905 388.339 584 392.293 584 397.17C584 402.047 531.905 406 467.642 406Z" fill="#E6E6E6"/>
<path d="M495.058 90.0843C474.808 81.4781 449.587 86.9309 424.955 90.7153C424.726 86.1324 421.948 80.5546 424.858 77.3573C428.394 73.4728 428.068 69.3913 425.941 65.2863C420.5 54.7892 428.295 43.6197 436.166 34.3324C437.94 32.2438 440.182 30.6027 442.71 29.5426C445.238 28.4824 447.98 28.0329 450.714 28.2307L465.294 29.2713C468.842 29.5245 472.228 30.8544 474.999 33.0829C477.769 35.3114 479.793 38.3323 480.799 41.7414C484.28 46.4724 486.143 51.1903 484.97 55.8837C490.185 59.4444 491.061 63.7425 488.717 68.5879C486.731 71.6388 486.752 74.6085 488.808 77.496C491.508 81.1774 493.576 85.2823 494.928 89.6423L495.058 90.0843Z" fill="#2F2E41"/>
<path d="M13.8387 350.98H426.555C430.225 350.98 433.745 349.524 436.34 346.93C438.936 344.337 440.394 340.82 440.394 337.153C290.784 319.779 143.986 319.779 0.00012207 337.153C0.00012207 340.82 1.4581 344.337 4.05334 346.93C6.64859 349.524 10.1685 350.98 13.8387 350.98Z" fill="#2F2E41"/>
<path d="M0.00012207 337.966L440.394 337.153L389.353 251.339L389.109 250.933V61.81C389.109 59.5144 388.657 57.2413 387.778 55.1205C386.899 52.9997 385.61 51.0726 383.986 49.4494C382.361 47.8262 380.433 46.5387 378.31 45.6603C376.188 44.7819 373.913 44.3299 371.616 44.3301H71.2201C68.9228 44.3299 66.6479 44.7819 64.5254 45.6603C62.4029 46.5387 60.4743 47.8262 58.8499 49.4494C57.2254 51.0726 55.9368 52.9997 55.0577 55.1205C54.1787 57.2413 53.7263 59.5144 53.7265 61.81V252.234L0.00012207 337.966Z" fill="#3F3D56"/>
<path d="M372.014 56.531C373.525 56.5327 374.974 57.1332 376.042 58.2006C377.11 59.268 377.711 60.7152 377.713 62.2248V234.665C377.711 236.174 377.11 237.622 376.042 238.689C374.973 239.756 373.525 240.357 372.014 240.359H68.379C66.8683 240.357 65.42 239.756 64.3517 238.689C63.2835 237.622 62.6826 236.174 62.6807 234.665V62.2248C62.6825 60.7153 63.2834 59.2681 64.3517 58.2007C65.4199 57.1332 66.8683 56.5328 68.379 56.531H372.014Z" fill="white"/>
<path d="M370.742 263.134C371.209 263.134 371.666 263.269 372.059 263.52C372.452 263.772 372.765 264.131 372.961 264.554L388.688 298.717C388.859 299.088 388.934 299.497 388.906 299.905C388.877 300.314 388.747 300.708 388.526 301.053C388.305 301.397 388.001 301.681 387.641 301.877C387.282 302.074 386.879 302.177 386.469 302.177H55.7383C55.3221 302.177 54.9127 302.07 54.5491 301.868C54.1856 301.665 53.8799 301.373 53.661 301.019C53.4422 300.665 53.3176 300.262 53.299 299.846C53.2803 299.431 53.3683 299.017 53.5546 298.645L70.6494 264.482C70.851 264.076 71.1624 263.735 71.5484 263.496C71.9343 263.258 72.3793 263.132 72.8331 263.134H370.742Z" fill="#2F2E41"/>
<path d="M221.418 53.6842C219.395 53.6842 217.755 52.0454 217.755 50.0239C217.755 48.0024 219.395 46.3636 221.418 46.3636C223.441 46.3636 225.081 48.0024 225.081 50.0239C225.081 52.0454 223.441 53.6842 221.418 53.6842Z" fill="white"/>
<path d="M253.926 308.684C254.463 308.685 254.985 308.862 255.411 309.188C255.837 309.514 256.144 309.972 256.284 310.489L260.229 325.131C260.326 325.492 260.339 325.871 260.267 326.239C260.194 326.606 260.037 326.952 259.809 327.249C259.581 327.547 259.288 327.788 258.952 327.953C258.616 328.119 258.246 328.205 257.871 328.205H182.847C182.457 328.205 182.074 328.112 181.728 327.934C181.381 327.756 181.083 327.497 180.857 327.18C180.632 326.864 180.485 326.497 180.43 326.112C180.374 325.727 180.412 325.334 180.54 324.967L185.611 310.326C185.778 309.846 186.089 309.431 186.503 309.137C186.916 308.842 187.411 308.684 187.919 308.684H253.926Z" fill="#2F2E41"/>
<path d="M53.7266 248.086V251.339H389.354L389.101 250.933V248.086H53.7266Z" fill="#2F2E41"/>
<path d="M63.0878 113.875C31.6172 113.875 6.10531 88.3836 6.10531 56.9377C6.10531 25.4919 31.6172 0 63.0878 0C94.5584 0 120.07 25.4919 120.07 56.9377C120.07 88.3836 94.5584 113.875 63.0878 113.875Z" fill="#1D84B5"/>
<path d="M39.4807 81.7463H86.6948C87.5581 81.7455 88.3858 81.4024 88.9963 80.7924C89.6068 80.1825 89.9501 79.3554 89.9509 78.4928V50.0239C89.95 49.1612 89.6067 48.3342 88.9962 47.7243C88.3858 47.1143 87.5581 46.7712 86.6948 46.7703H39.4807C38.6174 46.7712 37.7897 47.1143 37.1793 47.7243C36.5688 48.3342 36.2255 49.1612 36.2246 50.0239V78.4927C36.2254 79.3554 36.5688 80.1825 37.1792 80.7924C37.7897 81.4024 38.6174 81.7455 39.4807 81.7463ZM86.6948 50.0239V78.4928H39.4783L39.4807 50.0239L86.6948 50.0239Z" fill="white"/>
<path d="M48.4351 50.0239H77.7405V37.0095C77.7405 27.5832 71.578 20.7416 63.0878 20.7416C54.5977 20.7416 48.4352 27.5832 48.4352 37.0095L48.4351 50.0239ZM74.4843 46.7703H51.6913V37.0095C51.6913 29.347 56.3776 23.9952 63.0878 23.9952C69.798 23.9952 74.4843 29.347 74.4843 37.0095L74.4843 46.7703Z" fill="white"/>
<path d="M63.0878 66.6985C61.2895 66.6985 59.8317 65.2418 59.8317 63.4449C59.8317 61.648 61.2895 60.1913 63.0878 60.1913C64.8862 60.1913 66.344 61.648 66.344 63.4449C66.344 65.2418 64.8862 66.6985 63.0878 66.6985Z" fill="white"/>
<path d="M102.867 181.869H337.527C338.679 181.867 339.784 181.409 340.598 180.595C341.413 179.781 341.871 178.678 341.873 177.527V119.363C341.871 118.212 341.413 117.108 340.598 116.294C339.784 115.48 338.679 115.022 337.527 115.021H102.867C101.715 115.022 100.61 115.48 99.7953 116.294C98.9807 117.108 98.5224 118.212 98.5211 119.363V177.527C98.5224 178.678 98.9807 179.781 99.7953 180.595C100.61 181.409 101.715 181.867 102.867 181.869ZM337.527 116.758C338.218 116.759 338.881 117.033 339.37 117.522C339.859 118.01 340.134 118.672 340.134 119.363V177.527C340.134 178.217 339.859 178.88 339.37 179.368C338.881 179.856 338.218 180.131 337.527 180.132H102.867C102.175 180.131 101.513 179.856 101.024 179.368C100.535 178.88 100.26 178.217 100.259 177.527V119.363C100.26 118.672 100.535 118.01 101.024 117.522C101.513 117.033 102.175 116.759 102.867 116.758L337.527 116.758Z" fill="#E6E6E6"/>
<path d="M301.066 163.901C291.289 163.901 283.364 155.982 283.364 146.213C283.364 136.444 291.289 128.525 301.066 128.525C310.842 128.525 318.767 136.444 318.767 146.213C318.767 155.982 310.842 163.901 301.066 163.901Z" fill="#E6E6E6"/>
<path d="M260.183 134.421C260.571 134.421 260.955 134.497 261.314 134.644C261.672 134.792 261.998 135.009 262.272 135.283C262.547 135.557 262.765 135.882 262.913 136.24C263.062 136.598 263.138 136.982 263.138 137.369C263.138 137.757 263.062 138.141 262.913 138.498C262.765 138.856 262.547 139.182 262.272 139.455C261.998 139.729 261.672 139.946 261.314 140.094C260.955 140.242 260.571 140.318 260.183 140.317H121.1C120.318 140.317 119.567 140.007 119.014 139.454C118.461 138.901 118.15 138.151 118.15 137.369C118.15 136.587 118.461 135.838 119.014 135.285C119.567 134.732 120.318 134.421 121.1 134.421H260.183Z" fill="#E6E6E6"/>
<path d="M260.183 152.109C260.966 152.109 261.716 152.42 262.269 152.972C262.823 153.525 263.134 154.275 263.134 155.057C263.134 155.839 262.823 156.589 262.269 157.141C261.716 157.694 260.966 158.005 260.183 158.005H200.335C199.553 158.005 198.803 157.694 198.249 157.141C197.696 156.589 197.385 155.839 197.385 155.057C197.385 154.275 197.696 153.525 198.249 152.972C198.803 152.42 199.553 152.109 200.335 152.109H260.183Z" fill="#E6E6E6"/>
<path d="M389.931 153.301L433.31 176.346L433.859 157.142C419.7 154.78 406.23 150.668 393.775 143.974L389.238 132.774C388.743 131.554 387.94 130.483 386.906 129.666C385.873 128.85 384.644 128.316 383.342 128.117C382.039 127.919 380.707 128.062 379.477 128.533C378.246 129.004 377.16 129.786 376.323 130.804C375.1 132.292 374.488 134.19 374.612 136.112C374.736 138.034 375.587 139.838 376.992 141.156L389.931 153.301Z" fill="#FFB8B8"/>
<path d="M495.923 286.349C496.239 285.19 496.306 283.976 496.12 282.789C495.933 281.601 495.497 280.466 494.841 279.459L485.312 264.847C483.058 261.39 479.599 258.894 475.608 257.842C471.616 256.789 467.375 257.256 463.708 259.152C467.713 265.963 467.155 271.939 462.325 277.131C469.822 280.789 476.752 285.509 482.898 291.146C484.02 291.91 485.309 292.396 486.657 292.562C488.005 292.728 489.373 292.569 490.647 292.1C491.921 291.631 493.065 290.864 493.983 289.864C494.9 288.863 495.565 287.659 495.923 286.349Z" fill="#2F2E41"/>
<path d="M387.955 267.243C389.397 269.644 391.433 271.635 393.866 273.024C396.3 274.413 399.05 275.154 401.852 275.175L465.157 275.654L467.903 259.743L439.899 251.513L463.51 233.407L437.702 203.23L390.828 246.885C388.088 249.436 386.308 252.85 385.785 256.556C385.262 260.261 386.028 264.034 387.955 267.243Z" fill="#2F2E41"/>
<path d="M475.041 376.06H489.867C503.178 284.888 516.728 193.461 476.689 159.337L429.466 167.018L435.506 207.071L461.863 237.247L475.041 376.06Z" fill="#2F2E41"/>
<path d="M462.009 396.713C463.169 397.03 464.384 397.097 465.572 396.911C466.761 396.724 467.896 396.289 468.904 395.633L485.002 393.471C488.461 391.219 490.959 387.763 492.013 383.775C493.066 379.786 492.599 375.548 490.702 371.884C483.885 375.886 477.905 375.327 472.709 370.501C469.037 377.91 462.987 377.458 457.209 383.699C456.444 384.82 455.958 386.108 455.792 387.455C455.626 388.801 455.784 390.168 456.254 391.442C456.723 392.715 457.49 393.858 458.491 394.775C459.493 395.692 460.698 396.356 462.009 396.713Z" fill="#2F2E41"/>
<path d="M439.899 98.4347L467.354 91.8507C462.794 82.5244 462.418 72.147 464.608 61.1253L445.939 60.5767C445.354 74.2825 443.584 87.0871 439.899 98.4347Z" fill="#FFB8B8"/>
<path d="M432.353 183.538C452.339 197.147 466.461 184.004 477.237 163.726C475.74 151.318 478.165 136.469 482.655 120.335C484.652 113.218 483.907 105.612 480.566 99.0186C477.225 92.4246 471.531 87.322 464.608 84.7181L440.997 94.5941C420.948 110.923 417.002 128.611 424.524 147.266L432.353 183.538Z" fill="#1D84B5"/>
<path d="M489.867 112.151L511.831 123.673L472.845 146.717L467.42 160.088C467.058 160.98 466.882 161.937 466.902 162.9C466.922 163.862 467.138 164.811 467.537 165.687C467.936 166.564 468.509 167.35 469.222 167.998C469.935 168.646 470.773 169.142 471.684 169.456C472.719 169.813 473.824 169.925 474.91 169.784C475.996 169.644 477.035 169.254 477.946 168.645C478.856 168.036 479.613 167.224 480.157 166.274C480.701 165.324 481.017 164.261 481.082 163.168L481.63 153.85L531.181 137.511C532.851 136.961 534.373 136.038 535.633 134.812C536.892 133.587 537.856 132.091 538.452 130.438C539.32 128.029 539.364 125.4 538.577 122.963C537.791 120.526 536.218 118.419 534.105 116.97L494.26 89.6561L489.867 112.151Z" fill="#FFB8B8"/>
<path d="M467.903 114.346C477.063 110.335 485.393 114.692 495.907 118.187L497.554 89.1074C487.114 83.5474 477.161 82.0484 467.903 86.3641L467.903 114.346Z" fill="#1D84B5"/>
<path d="M456.945 74.9807C447.264 74.9807 439.416 67.1389 439.416 57.4656C439.416 47.7922 447.264 39.9504 456.945 39.9504C466.626 39.9504 474.474 47.7922 474.474 57.4656C474.474 67.1389 466.626 74.9807 456.945 74.9807Z" fill="#FFB8B8"/>
<path d="M435.975 55.2556C453.33 56.9541 466.554 54.1179 475.006 46.0425V39.5392H437.448L435.975 55.2556Z" fill="#2F2E41"/>
</g>
<defs>
<clipPath id="clip0_2_162">
<rect width="584" height="406" fill="white" transform="matrix(-1 0 0 1 584 0)"/>
</clipPath>
</defs>
</svg>
